# https://github.com/mikedh/trimesh
v -0.00240096 0.00846658 -0.00565922
v -0.01807583 -0.00112760 -0.00844433
v -0.02248925 0.00383073 0.00624479
v -0.00694999 0.00820614 0.00150049
v -0.01920727 -0.00743476 0.00317359
v -0.02183893 0.00525026 -0.00463893
v -0.00147924 0.00691813 0.00648820
v -0.02118099 0.00654227 0.00100276
v -0.00605137 0.00115041 0.00945909
v -0.01680079 -0.00056268 0.00841248
v -0.02252238 0.00530374 -0.00408295
v 0.00011058 -0.00269242 0.00916580
v -0.01710539 0.00608830 -0.00447287
v -0.01638859 -0.00759730 0.00370648
v -0.00047306 0.00857840 -0.00576072
v -0.01719494 0.00402730 0.00652474
v 0.00049982 -0.00801467 -0.00584927
v 0.00052035 -0.00872878 -0.00171038
v -0.00089015 -0.00276463 0.00912792
v -0.00053937 0.00916300 0.00046331
v -0.00076968 -0.00698639 0.00590250
v -0.00141991 0.00253185 0.00939030
v -0.00601250 -0.00863132 0.00058557
v -0.00625826 0.00561946 0.00701237
v -0.00084125 -0.00881769 0.00056132
v -0.00151194 -0.00761741 -0.00557625
v -0.00712089 -0.00751611 -0.00567537
v -0.02233492 0.00240661 -0.00751465
v -0.02211470 -0.00127864 -0.00834100
v -0.00746121 0.00278744 -0.00880727
v -0.02222473 -0.00084761 0.00811689
v -0.00197000 0.00276109 -0.00959592
v -0.02194051 -0.00435094 -0.00720235
v -0.00020354 0.00265256 0.00933667
v 0.00039295 -0.00723212 0.00599487
v -0.02247552 0.00357467 0.00649209
v -0.02248566 0.00375497 0.00640830
v 0.00040589 -0.00628272 -0.00731996
v -0.02251374 0.00520282 -0.00461321
v -0.02225005 -0.00042524 0.00822737
v -0.02204008 -0.00040320 0.00822289
v -0.01665127 -0.00692713 -0.00626994
v -0.02181473 -0.00744152 0.00354167
v -0.00537697 -0.00343135 0.00916379
v -0.02199903 -0.00461039 0.00711030
v -0.00221273 0.00898820 0.00084010
v -0.02177622 -0.00737047 -0.00474427
v -0.02178133 -0.00779345 0.00106121
v -0.02076755 -0.00666101 -0.00635839
v -0.00010318 0.00262151 -0.00979511
v -0.00701002 0.00733024 -0.00500250
v -0.00044617 0.00705552 0.00634570
v -0.02180419 -0.00675384 -0.00633044
v -0.00709699 -0.00302490 -0.00890230
v 0.00053696 -0.00920465 0.00048007
v -0.00509759 -0.00699341 0.00604224
v -0.02261307 0.00640332 0.00101369
v -0.00039226 0.00607189 0.00707127
v -0.02191669 -0.00587464 0.00550822
v -0.02172981 -0.00837124 -0.00236828
v -0.00023331 0.00472092 -0.00841756
v -0.00179232 -0.00331567 -0.00932880
v -0.00046624 0.00752470 0.00490405
v 0.00026593 -0.00369538 -0.00958526
v 0.00004325 -0.00154107 0.00913731
v 0.00049383 -0.00860975 0.00208367
v -0.01785879 0.00291726 -0.00729536
v -0.01643030 -0.00849931 -0.00169718
v -0.02050067 -0.00446746 0.00705664
v -0.01646355 0.00725152 0.00125742
v -0.00051715 0.00893179 -0.00122150
v 0.00031491 -0.00595963 0.00666774
v -0.01952759 -0.00824982 -0.00250764
v -0.02228208 0.00376660 0.00641373
v -0.01629674 -0.00419900 0.00761882
v -0.02229736 0.00178115 -0.00769113
v -0.02242792 0.00386197 -0.00601939
v 0.00012059 -0.00121054 -0.00963897
f 23 25 56
f 56 25 21
f 9 22 24
f 24 22 7
f 24 7 4
f 4 7 46
f 44 19 9
f 9 19 22
f 67 30 2
f 2 30 54
f 51 4 1
f 1 4 46
f 56 14 23
f 23 14 68
f 44 75 56
f 56 75 14
f 56 21 44
f 44 21 19
f 24 16 9
f 9 16 10
f 23 68 27
f 27 68 42
f 51 30 13
f 13 30 67
f 30 32 54
f 54 32 62
f 27 42 54
f 54 42 2
f 4 51 70
f 70 51 13
f 9 10 44
f 44 10 75
f 16 24 70
f 70 24 4
f 30 51 32
f 32 51 1
f 54 62 27
f 27 62 26
f 27 26 23
f 23 26 25
f 70 13 8
f 8 13 6
f 70 8 16
f 16 8 74
f 10 16 41
f 41 16 74
f 75 10 69
f 69 10 41
f 13 67 6
f 49 2 42
f 75 69 14
f 14 69 5
f 68 73 42
f 42 73 49
f 73 68 5
f 5 68 14
f 26 62 64
f 22 19 65
f 25 26 17
f 19 21 72
f 1 46 71
f 32 1 15
f 46 7 63
f 21 25 66
f 7 22 34
f 62 32 50
f 64 38 26
f 65 34 22
f 17 18 25
f 72 12 19
f 71 15 1
f 15 61 32
f 63 20 46
f 66 35 21
f 34 58 7
f 50 78 62
f 26 38 17
f 19 12 65
f 25 18 55
f 21 35 72
f 46 20 71
f 32 61 50
f 7 52 63
f 25 55 66
f 7 58 52
f 62 78 64
f 65 12 72
f 72 35 66
f 66 55 18
f 18 17 38
f 38 64 78
f 78 50 61
f 61 15 71
f 71 20 63
f 63 52 58
f 58 34 65
f 65 72 66
f 66 18 38
f 38 78 61
f 61 71 63
f 63 58 65
f 65 66 38
f 38 61 63
f 63 65 38
f 6 67 28
f 67 2 76
f 2 49 33
f 74 8 57
f 41 74 36
f 8 6 11
f 69 41 31
f 73 5 43
f 49 73 60
f 5 69 59
f 28 77 6
f 76 28 67
f 33 29 2
f 57 3 74
f 36 40 41
f 11 57 8
f 31 45 69
f 43 48 73
f 60 47 49
f 59 43 5
f 2 29 76
f 6 77 39
f 74 3 37
f 74 37 36
f 6 39 11
f 41 40 31
f 73 48 60
f 49 47 53
f 69 45 59
f 49 53 33
f 3 57 11
f 11 39 77
f 77 28 76
f 76 29 33
f 33 53 47
f 47 60 48
f 48 43 59
f 59 45 31
f 31 40 36
f 36 37 3
f 3 11 77
f 77 76 33
f 33 47 48
f 48 59 31
f 31 36 3
f 3 77 33
f 33 48 31
f 31 3 33

