# https://github.com/mikedh/trimesh
v -0.01146594 0.00324139 -0.00288045
v -0.01333983 -0.00631670 -0.00521673
v 0.00415788 -0.00119445 -0.00630542
v 0.00288813 -0.00372193 -0.00487108
v -0.01204947 -0.00490658 -0.01096217
v -0.00095950 -0.00470159 0.00178804
v -0.01159114 -0.00318300 -0.01230277
v -0.01768905 -0.00134309 -0.00993470
v -0.01281476 0.00348117 -0.00855158
v -0.01223874 -0.00635977 -0.00825013
v -0.01493437 -0.00037719 -0.01257760
v -0.00015293 -0.00570143 -0.00303914
v -0.00254140 -0.00275840 0.00408739
v -0.01568187 -0.00382223 -0.01048544
v -0.01190842 0.00273828 -0.00186960
v -0.00599991 -0.00481611 -0.00925761
v -0.00823989 -0.00644155 -0.00214807
v -0.00722869 0.00301174 0.00294814
v 0.00249420 -0.00425764 -0.00354557
v -0.01570481 -0.00245134 -0.01182541
v -0.00325808 0.00462914 0.00469382
v -0.00674475 -0.00010850 -0.01107312
v -0.00027818 -0.00143420 -0.00845626
v 0.00388694 0.00292560 -0.00616496
v -0.00731560 0.00521822 -0.00055262
v -0.01510055 -0.00437110 -0.00332793
v -0.00207267 0.00726036 0.00223024
v -0.00244642 0.00286921 -0.00845685
v 0.00317036 0.00447601 -0.00516821
v 0.00386928 0.00325936 -0.00616016
v -0.01044877 -0.00423640 0.00026333
v -0.01144716 -0.00101809 -0.01269675
v -0.01517962 0.00161954 -0.00396751
v -0.00445320 -0.00310205 0.00371957
v -0.00672392 -0.00654561 -0.00637874
v -0.01407623 0.00111182 -0.01185952
v -0.00193921 0.00715411 0.00249951
v -0.00345212 0.00630051 -0.00389024
v -0.01673074 -0.00224216 -0.00304430
v 0.00131737 0.00740087 -0.00251820
v 0.00071073 -0.00513745 -0.00074782
v -0.00630366 0.00001478 0.00403429
v -0.01724510 -0.00318663 -0.00897975
v -0.00263254 0.00583124 0.00365275
v 0.00359083 0.00325591 -0.00629785
v -0.00105030 0.00733903 0.00112202
v 0.00029371 -0.00396854 -0.00651772
v -0.01299009 0.00096005 -0.00047579
v -0.01198146 -0.00124947 0.00050116
v -0.00600384 -0.00258842 -0.01092692
v -0.01136955 0.00044390 -0.01193564
v -0.01819960 -0.00274448 -0.00631938
v 0.00141514 -0.00523531 -0.00182304
v 0.00369105 -0.00120615 -0.00655147
v -0.00296746 -0.00227677 0.00470949
v 0.00322006 -0.00370375 -0.00469734
v -0.01853218 -0.00043745 -0.00685004
v -0.01590049 0.00255811 -0.01027796
v -0.01709342 0.00154868 -0.01031538
v -0.01531165 -0.00500521 -0.00892240
v -0.01510172 0.00251895 -0.00463612
v -0.00327196 0.00441681 0.00472934
v -0.01806091 0.00176933 -0.00653118
v 0.00402934 -0.00152728 -0.00608576
v -0.00503302 0.00528581 -0.00446677
v -0.00440320 0.00348076 -0.00824290
v -0.01605376 -0.00470518 -0.00752893
v -0.00957182 0.00407037 -0.00670027
v -0.00777982 0.00499823 -0.00216247
v -0.01680124 -0.00386626 -0.00595813
v -0.00182011 0.00731421 0.00230588
v -0.00366842 0.00145370 0.00553641
v -0.00751091 0.00100371 -0.01059181
v -0.00205041 -0.00523023 0.00095289
v -0.00352240 0.00074891 0.00535932
v -0.01688810 0.00248930 -0.00670219
v -0.01685222 0.00005247 -0.00353774
f 28 45 23
f 23 45 54
f 33 15 61
f 61 15 1
f 25 69 15
f 15 69 1
f 1 69 68
f 68 69 65
f 68 73 9
f 9 73 51
f 65 66 68
f 68 66 73
f 9 61 68
f 68 61 1
f 61 76 33
f 33 76 63
f 69 25 65
f 65 25 38
f 25 27 38
f 25 18 27
f 48 18 15
f 15 18 25
f 77 48 33
f 33 48 15
f 65 38 66
f 66 38 28
f 28 38 45
f 57 77 63
f 63 77 33
f 49 48 39
f 39 48 77
f 57 52 77
f 77 52 39
f 31 49 26
f 26 49 39
f 49 31 42
f 42 31 34
f 52 70 39
f 39 70 26
f 48 49 18
f 18 49 42
f 63 59 57
f 57 59 8
f 63 76 59
f 59 76 58
f 73 66 22
f 22 66 28
f 73 22 51
f 51 22 32
f 22 28 50
f 50 28 23
f 32 22 7
f 7 22 50
f 11 36 32
f 32 36 51
f 58 36 59
f 59 36 11
f 31 17 34
f 34 17 74
f 47 4 12
f 4 47 54
f 54 47 23
f 47 16 23
f 23 16 50
f 16 47 35
f 35 47 12
f 5 16 10
f 10 16 35
f 74 17 12
f 12 17 35
f 17 2 35
f 35 2 10
f 16 5 50
f 50 5 7
f 20 7 14
f 14 7 5
f 14 60 43
f 43 60 67
f 14 5 60
f 60 5 10
f 14 43 20
f 20 43 8
f 20 8 11
f 11 8 59
f 11 32 20
f 20 32 7
f 17 31 2
f 2 31 26
f 67 2 70
f 70 2 26
f 67 60 2
f 2 60 10
f 43 67 52
f 52 67 70
f 52 57 43
f 43 57 8
f 61 9 76
f 76 9 58
f 58 9 36
f 36 9 51
f 54 45 24
f 4 54 64
f 38 27 46
f 27 18 21
f 45 38 40
f 18 42 62
f 34 74 13
f 74 12 53
f 42 34 75
f 12 4 19
f 24 3 54
f 64 56 4
f 46 40 38
f 21 44 27
f 40 29 45
f 62 21 18
f 13 55 34
f 53 41 74
f 75 72 42
f 19 53 12
f 45 29 30
f 27 71 46
f 27 37 71
f 27 44 37
f 45 30 24
f 54 3 64
f 4 56 19
f 42 72 62
f 74 6 13
f 74 41 6
f 34 55 75
f 64 3 24
f 24 30 29
f 29 40 46
f 46 71 37
f 37 44 21
f 62 72 75
f 75 55 13
f 13 6 41
f 41 53 19
f 19 56 64
f 64 24 29
f 29 46 37
f 37 21 62
f 62 75 13
f 13 41 19
f 19 64 29
f 29 37 62
f 62 13 19
f 19 29 62

