# https://github.com/mikedh/trimesh
v -0.00260381 0.00971774 0.00069148
v -0.01561114 0.00935832 -0.00978837
v -0.01347098 -0.00531912 -0.01758053
v -0.01999639 -0.00279561 -0.00772815
v 0.00135147 -0.00103983 0.00081671
v 0.00887531 0.01023761 0.00051543
v -0.01266702 -0.00312982 -0.01896163
v -0.01962246 0.00179323 -0.00573194
v -0.00234501 -0.00626175 0.00650016
v 0.00688134 -0.00142914 -0.00660792
v -0.00631543 0.00634342 0.00323432
v -0.01528055 0.00810817 -0.01569975
v -0.00761590 -0.00346840 0.00791776
v -0.01220853 -0.00175293 -0.01975785
v -0.02040303 0.00420607 -0.00757203
v -0.00476909 -0.00625049 -0.00085308
v -0.01219816 0.00890101 -0.01460326
v -0.01511124 0.00808119 -0.01595796
v 0.00055343 -0.00773461 0.00326293
v -0.01820368 0.00866717 -0.01124805
v -0.00970957 -0.00163887 -0.01830637
v -0.01939395 -0.00363284 -0.00859732
v 0.00493122 -0.00826061 -0.00028287
v 0.00475462 0.00400622 -0.00911851
v -0.01701561 -0.00571222 -0.01001218
v -0.01806264 0.00888617 -0.01147929
v -0.00150710 -0.00654477 -0.00433478
v -0.01253045 0.00385003 -0.01963829
v -0.00597166 -0.00467474 0.00373235
v -0.02055084 -0.00003337 -0.00706144
v -0.01882278 -0.00305170 -0.00701993
v -0.02001828 0.00613895 -0.00829221
v 0.01262436 -0.00584782 -0.00320388
v -0.01315226 0.00499768 -0.01876014
v -0.01408650 -0.00677441 -0.01318843
v 0.00143246 0.00998626 -0.00486626
v -0.01741678 -0.00592882 -0.01148010
v -0.01105772 -0.00511980 -0.01640998
v -0.01797994 0.00620648 -0.00680603
v -0.01804643 -0.00545672 -0.01054471
v 0.01135779 0.00229611 -0.00465698
v 0.00425126 -0.00078933 -0.00853297
v -0.01228369 0.00026273 -0.01977727
v -0.02088012 0.00169269 -0.00667122
v 0.00263098 0.00996739 0.00647074
v -0.00873795 -0.00035753 0.00532507
v -0.00954942 0.00421904 -0.01814310
v 0.00726981 -0.00483485 -0.00460343
v -0.01582137 -0.00663539 -0.01388294
v 0.00131272 -0.00465160 -0.00744232
v -0.00398648 0.00654014 0.00875214
v -0.01481010 -0.00625878 -0.01546116
f 39 11 2
f 2 11 1
f 48 23 50
f 50 23 27
f 16 9 29
f 46 29 13
f 21 47 42
f 42 47 24
f 27 19 16
f 2 1 17
f 17 1 36
f 38 21 50
f 50 21 42
f 36 41 24
f 46 11 8
f 8 11 39
f 11 51 1
f 1 51 45
f 50 27 38
f 38 27 35
f 25 16 31
f 31 16 29
f 29 46 31
f 31 46 8
f 10 48 42
f 42 48 50
f 27 16 35
f 35 16 25
f 1 45 36
f 36 45 6
f 36 24 17
f 17 24 47
f 11 46 51
f 42 24 10
f 10 24 41
f 48 10 33
f 5 45 51
f 5 6 45
f 5 36 6
f 5 41 36
f 5 10 41
f 5 33 10
f 5 48 33
f 5 23 48
f 5 27 23
f 5 19 27
f 5 16 19
f 5 9 16
f 5 29 9
f 5 13 29
f 5 46 13
f 5 51 46
f 38 35 52
f 8 39 32
f 35 25 37
f 31 8 30
f 17 47 28
f 47 21 14
f 2 17 18
f 25 31 22
f 39 2 26
f 21 38 7
f 52 3 38
f 32 15 8
f 37 49 35
f 30 4 31
f 28 34 17
f 14 43 47
f 18 12 2
f 22 40 25
f 26 20 39
f 7 14 21
f 35 49 52
f 8 15 44
f 25 40 37
f 8 44 30
f 17 34 18
f 47 43 28
f 2 12 26
f 31 4 22
f 39 20 32
f 38 3 7
f 7 3 52
f 52 49 37
f 37 40 22
f 22 4 30
f 30 44 15
f 15 32 20
f 20 26 12
f 12 18 34
f 34 28 43
f 43 14 7
f 7 52 37
f 37 22 30
f 30 15 20
f 20 12 34
f 34 43 7
f 7 37 30
f 30 20 34
f 34 7 30

