# https://github.com/mikedh/trimesh
v -0.00392857 -0.00667065 -0.00717013
v -0.01909907 -0.00149503 0.00546710
v -0.01965972 -0.00856579 -0.00582777
v 0.00130929 -0.00716393 -0.00532865
v -0.02200462 0.00292836 -0.01049768
v -0.02446990 0.00370462 0.00357105
v -0.02297479 -0.00778273 -0.00146415
v -0.00358016 0.00267248 -0.01022692
v -0.00144764 0.00759694 0.00599454
v -0.01697908 -0.00192832 -0.01128053
v -0.02078059 0.00574122 -0.00766654
v 0.00160921 0.00240369 -0.01010720
v -0.02446689 0.00253677 0.00392432
v -0.00375646 0.00951676 0.00038122
v -0.00519000 -0.00387820 0.00687341
v -0.00054869 -0.00596345 0.00507903
v -0.02072916 0.00712347 -0.00159315
v -0.00119116 0.00838912 0.00425379
v -0.01707850 0.00457139 0.00437540
v 0.00171704 -0.00318207 -0.00896024
v -0.00046148 -0.00635771 0.00469778
v -0.02153019 -0.00172402 -0.01177575
v -0.02011963 -0.00791535 0.00018874
v 0.00160973 0.00239063 -0.01010609
v -0.02366767 0.00687706 -0.00209425
v -0.00166699 0.00313430 0.00868482
v -0.00392483 -0.00244482 -0.00980219
v -0.02428706 -0.00182242 0.00458937
v -0.02215451 -0.00817875 -0.00610157
v -0.02433563 -0.00187266 0.00456182
v -0.02154262 -0.00283939 -0.01134950
v 0.00171753 -0.00317251 -0.00896617
v -0.00481046 0.00680380 0.00625911
v -0.00468749 -0.00683876 0.00400249
v -0.02258183 0.00556732 -0.00798365
v -0.01874182 -0.00609180 -0.00984664
v -0.02195705 0.00270071 -0.01070162
v -0.02311926 -0.00768670 -0.00065575
v -0.02374127 -0.00580692 0.00235941
v -0.01589487 0.00286935 -0.01043263
v 0.00083731 0.00756249 -0.00726255
v -0.02208228 -0.00785282 -0.00662447
v -0.00403425 -0.00787179 -0.00218678
v -0.02299357 0.00367019 0.00388349
v -0.02144986 0.00277682 -0.01059909
v -0.00524250 0.00104491 0.00823927
v 0.00128039 -0.00720747 -0.00514702
v -0.02434257 -0.00181269 0.00458310
v -0.01542859 0.00640443 -0.00756880
v -0.02182088 0.00126359 -0.01103614
v -0.02285252 0.00590824 -0.00652008
v 0.00051516 -0.00738372 -0.00064758
v -0.00125379 -0.00233037 0.00802013
v 0.00058431 0.00793929 -0.00591307
v -0.00119489 -0.00292139 0.00786570
v -0.02162368 -0.00620369 -0.00981088
v -0.02430396 -0.00210030 0.00445019
v -0.00056757 0.00971946 0.00021045
v -0.00167605 0.00206238 0.00907768
v -0.02027698 -0.00514876 0.00369735
v -0.02386861 -0.00533152 0.00294790
v 0.00160603 0.00242157 -0.01009442
v 0.00033116 -0.00721795 0.00036821
v -0.01479330 0.00815824 -0.00087981
v -0.02430113 0.00425266 0.00241710
v -0.00323231 0.00749107 -0.00670942
f 8 27 40
f 40 27 10
f 34 23 43
f 43 23 3
f 15 60 34
f 34 60 23
f 33 19 46
f 46 19 2
f 43 3 1
f 1 3 36
f 66 8 49
f 49 8 40
f 27 1 10
f 10 1 36
f 14 66 64
f 64 66 49
f 46 2 15
f 15 2 60
f 19 33 64
f 64 33 14
f 64 49 17
f 17 49 11
f 64 17 19
f 19 17 44
f 19 44 2
f 2 44 28
f 2 28 60
f 49 40 11
f 11 40 45
f 40 10 45
f 34 43 52
f 33 46 59
f 14 33 9
f 46 15 55
f 66 14 54
f 15 34 21
f 27 8 12
f 8 66 62
f 1 27 32
f 43 1 4
f 52 63 34
f 59 26 33
f 9 18 14
f 55 53 46
f 54 41 66
f 21 16 15
f 12 24 27
f 62 12 8
f 32 20 1
f 4 47 43
f 34 63 21
f 33 26 9
f 14 18 58
f 46 53 59
f 14 58 54
f 15 16 55
f 27 24 32
f 66 41 62
f 1 20 4
f 43 47 52
f 47 4 20
f 20 32 24
f 24 12 62
f 62 41 54
f 54 58 18
f 18 9 26
f 26 59 53
f 53 55 16
f 16 21 63
f 63 52 47
f 47 20 24
f 24 62 54
f 54 18 26
f 26 53 16
f 16 63 47
f 47 24 54
f 54 26 16
f 16 47 54
f 60 28 57
f 45 10 22
f 10 36 31
f 11 45 5
f 44 17 25
f 28 44 13
f 17 11 51
f 23 60 61
f 36 3 29
f 3 23 38
f 57 61 60
f 22 50 45
f 31 22 10
f 5 35 11
f 25 65 44
f 13 48 28
f 51 25 17
f 61 39 23
f 29 42 36
f 38 7 3
f 36 56 31
f 45 37 5
f 44 65 6
f 44 6 13
f 11 35 51
f 28 48 30
f 28 30 57
f 23 39 38
f 36 42 56
f 3 7 29
f 45 50 37
f 35 5 37
f 50 22 31
f 31 56 42
f 42 29 7
f 7 38 39
f 39 61 57
f 57 30 48
f 48 13 6
f 65 25 51
f 51 35 37
f 37 50 31
f 31 42 7
f 7 39 57
f 57 48 6
f 6 65 51
f 51 37 31
f 31 7 57
f 57 6 51
f 51 31 57

