# https://github.com/mikedh/trimesh
v 0.00048109 -0.00767960 -0.00186443
v 0.00246511 0.00066062 -0.00674772
v -0.01031952 -0.00385454 0.00806861
v -0.02129918 0.00090216 -0.01324057
v -0.03021307 0.00992777 -0.00098647
v 0.00610309 -0.01063893 0.00368997
v -0.02857976 -0.00561519 -0.00258175
v -0.00575988 0.00116883 -0.00794737
v -0.02201072 -0.00496275 -0.01042203
v -0.02655729 -0.00589289 -0.00875177
v 0.00533268 -0.00945130 -0.00861838
v -0.01182949 0.01220964 0.00337836
v -0.02684386 -0.00605679 -0.00783255
v -0.02521571 0.00132324 -0.01448105
v -0.02618584 0.00769392 -0.01269181
v -0.00980951 0.00654640 0.00893716
v -0.02567382 -0.00387856 -0.01191926
v 0.00231235 0.00635810 -0.00607880
v -0.01378478 0.00673786 0.00724055
v -0.00882858 0.01304124 -0.00309726
v -0.02667936 -0.00610692 -0.00832831
v -0.00122269 -0.00778279 0.00385034
v -0.03092124 0.00670158 0.00190889
v -0.02985371 0.01048450 -0.00138198
v -0.03009435 0.01045075 -0.00146790
v -0.03084166 0.00384375 0.00229568
v -0.01360774 0.00062326 0.00854355
v -0.02626942 0.00772309 -0.01264971
v -0.02560638 -0.00310397 -0.01229834
v -0.02231930 0.01173172 -0.00567497
v 0.00264070 0.01386172 0.01424044
v -0.02483320 -0.00658419 -0.00131278
v -0.00878193 -0.00065978 0.01197267
v -0.00473455 -0.00602272 -0.00071900
v -0.00070512 0.00058641 0.00281886
v -0.00093034 0.01045687 0.01041932
v -0.00563560 0.01172318 0.00484475
v -0.00000614 -0.00571978 -0.00507378
v -0.00671078 0.00729108 -0.00838341
v 0.00581019 0.01258879 0.00102434
v -0.02058079 0.00798574 -0.01192387
v -0.02777951 -0.00340626 0.00267788
v -0.02501468 0.01170092 -0.00007723
v -0.00488795 -0.00438979 -0.00383776
v -0.02624856 0.00769200 -0.01270710
v -0.00707927 -0.00605156 0.01099457
v -0.02323286 -0.00707265 -0.00624831
v -0.00646997 -0.00554160 0.00327374
v -0.03007315 -0.00306391 0.00145536
v -0.02830416 0.00706814 0.00269372
v -0.02910028 0.00189780 0.00360799
v -0.02751307 0.01125836 -0.00675241
v -0.02835267 0.01116194 -0.00699144
v -0.02618679 0.00732379 -0.01281598
v -0.00107061 0.01248870 -0.00104811
v -0.03002928 0.01048474 -0.00167589
v -0.03085868 0.00173829 0.00281371
v -0.03035692 -0.00114359 0.00190502
v -0.01016106 0.00590667 0.01224875
v -0.02834980 -0.00601291 -0.00320231
f 36 55 37
f 38 2 11
f 37 16 36
f 36 16 33
f 50 19 43
f 43 19 12
f 3 48 46
f 27 3 33
f 33 3 46
f 41 39 4
f 4 39 8
f 30 41 52
f 52 41 15
f 41 4 15
f 30 52 43
f 43 52 24
f 43 12 30
f 30 12 20
f 4 8 9
f 9 8 44
f 24 50 43
f 20 55 39
f 39 55 18
f 27 19 51
f 51 19 50
f 19 16 12
f 12 16 37
f 34 47 44
f 44 47 9
f 48 3 32
f 32 3 42
f 3 27 42
f 42 27 51
f 2 8 18
f 18 8 39
f 34 48 47
f 47 48 32
f 12 37 20
f 20 37 55
f 8 2 44
f 44 2 38
f 39 41 20
f 20 41 30
f 19 27 16
f 16 27 33
f 1 34 38
f 38 34 44
f 48 34 22
f 22 34 1
f 22 1 6
f 48 22 35
f 6 1 35
f 22 6 35
f 1 38 35
f 38 11 35
f 55 31 35
f 11 2 35
f 2 18 35
f 18 55 35
f 40 36 35
f 31 40 35
f 36 59 35
f 59 33 35
f 26 23 25
f 33 46 35
f 46 48 35
f 15 4 14
f 47 32 13
f 51 50 26
f 9 47 21
f 24 52 53
f 52 15 28
f 42 51 58
f 26 57 51
f 21 10 9
f 53 56 24
f 4 9 17
f 50 24 5
f 32 42 7
f 14 54 15
f 28 53 52
f 7 60 32
f 5 23 50
f 17 29 4
f 24 25 5
f 13 21 47
f 58 49 42
f 24 56 25
f 9 10 17
f 4 29 14
f 42 49 7
f 15 45 28
f 51 57 58
f 32 60 13
f 50 23 26
f 58 25 29
f 25 53 28
f 28 54 29
f 29 10 13
f 13 7 58
f 58 26 25
f 15 54 45
f 23 5 25
f 25 56 53
f 28 45 54
f 54 14 29
f 29 17 10
f 10 21 13
f 13 60 7
f 7 49 58
f 58 57 26
f 25 28 29
f 29 13 58
f 59 36 33
f 40 31 55
f 55 36 40

