# https://github.com/mikedh/trimesh
v -0.07355606 -0.01619082 -0.04406242
v -0.07029407 -0.01648510 -0.04754412
v -0.07113198 -0.01620208 -0.03670918
v -0.07475864 -0.01461507 -0.03947699
v -0.07640287 -0.01340872 -0.03529158
v -0.07752492 -0.01029786 -0.03788427
v -0.07277345 -0.00340019 -0.03445720
v -0.09714174 -0.00928310 -0.00964900
v -0.09655485 -0.00876109 -0.00370774
v -0.09352932 -0.00594210 -0.01377082
v -0.09051748 -0.00461720 -0.01470053
v -0.07982025 -0.01347872 -0.01566149
v -0.08125446 -0.01163703 -0.02853762
v -0.08174170 -0.00967720 -0.03174697
v -0.08820552 -0.00949902 -0.02339946
v -0.08881482 -0.01000898 -0.01567862
v -0.08295824 -0.01174021 -0.02282285
v -0.07521104 -0.01474361 -0.02971084
v -0.07563246 -0.01459636 -0.02298322
v -0.08117015 -0.01402929 -0.01225981
v -0.08256569 -0.01347086 -0.00249932
v -0.08974024 -0.01122416 -0.01254402
v -0.08954379 -0.01182049 -0.00287006
v -0.06987237 -0.01520002 -0.01529296
v -0.07100814 -0.01494255 -0.01130402
v -0.07281602 -0.01433503 -0.00227565
v -0.07927044 -0.00329680 -0.03342092
v -0.08244067 -0.00337101 -0.02385433
v -0.07694025 -0.01604536 0.01289163
v -0.09458326 -0.01248719 0.01696775
v -0.09260117 -0.01306127 0.02251860
v -0.09329544 -0.00984779 0.00653475
v -0.09056650 -0.01129840 0.02847089
v -0.09648538 -0.00463225 0.00689294
v -0.09704933 -0.00181926 0.01154348
v -0.09086633 -0.00408133 0.02106976
v -0.09175582 -0.00544977 0.03180515
v -0.08538493 -0.01342232 0.00606442
v -0.08967419 -0.01355200 0.01091591
v -0.08052450 -0.01522705 0.00941049
v -0.08818789 -0.01487293 0.01669346
v -0.08425310 -0.01560036 0.02243416
v -0.07728763 -0.01448520 0.00461441
v -0.07341808 -0.01581361 0.01908651
v -0.08215874 -0.01340301 0.02841199
v -0.07354519 -0.01508090 0.02642074
v -0.07394640 -0.01080340 0.03292684
v -0.08386013 -0.00826020 0.03222656
v -0.06880340 -0.00692708 0.03558319
v -0.07572041 -0.00362625 0.03359788
v -0.09189662 0.00194925 -0.01442445
v -0.09299666 0.00053843 -0.00159651
v -0.10029419 0.00903481 0.00138532
v -0.09967566 0.01195713 -0.00583144
v -0.07942321 0.00240068 -0.03275199
v -0.08982488 0.00078361 -0.01649048
v -0.07154848 0.00236853 -0.03128205
v -0.08280616 0.00853128 -0.02772131
v -0.08266589 0.00649945 -0.01625387
v -0.08076849 0.00709957 -0.01889848
v -0.07592537 0.00863137 -0.02564885
v -0.08907338 0.00855774 -0.01138745
v -0.08856797 0.01273340 -0.00349991
v -0.07909485 0.00990430 -0.01243276
v -0.07909485 0.00990430 -0.01243276
v -0.07798410 0.01394669 -0.00295783
v -0.09538874 -0.00085319 0.00615934
v -0.09530332 -0.00073583 0.00617894
v -0.09338376 0.00031635 0.00730700
v -0.09440830 0.00059318 0.00681954
v -0.09192388 0.00385380 0.00672006
v -0.09043084 0.00474425 0.00700871
v -0.09196852 0.00103012 0.03118561
v -0.09110844 0.00637383 0.01304152
v -0.09176934 0.00936296 0.02086432
v -0.09240337 0.00669316 0.02711921
v -0.08955230 0.00606162 0.00691996
v -0.08429223 -0.00023767 0.03230571
v -0.07450183 0.00510139 0.02950913
v -0.08366073 0.00867034 0.00797929
v -0.08156869 0.01110778 0.02077064
v -0.06896330 0.01325266 0.01033409
v -0.07109891 0.01139228 0.02101722
v -0.08426031 0.00675732 0.02803032
v -0.05804886 -0.01990213 -0.04134237
v -0.06172769 -0.02030284 -0.03599545
v -0.06385575 -0.01820094 -0.04349221
v -0.06823354 -0.01767493 -0.03994641
v -0.05243402 -0.02036460 -0.04041351
v -0.05451569 -0.02132514 -0.03552428
v -0.04291038 -0.02023999 -0.03862589
v -0.03437026 -0.02046896 -0.03659155
v -0.06679206 -0.01812512 -0.03073393
v -0.06690353 -0.01748234 -0.02287254
v -0.05660010 -0.02027304 -0.02965466
v -0.05580060 -0.01779335 -0.02209481
v -0.04777235 -0.01853541 -0.02057327
v -0.04744552 -0.01628434 -0.01440381
v -0.04470965 -0.02214755 -0.03344738
v -0.04666630 -0.02107107 -0.02704309
v -0.03783218 -0.02220437 -0.02395996
v -0.04025384 -0.01924141 -0.01892910
v -0.03457777 -0.02282116 -0.03113960
v -0.02971409 -0.02314775 -0.02052181
v -0.03594481 -0.01826105 -0.01376822
v -0.02568759 -0.02017339 -0.01047521
v -0.03061373 -0.01680669 0.00167429
v -0.02742998 -0.01805004 -0.00569158
v -0.02902856 -0.01698292 -0.00258078
v -0.06151716 -0.01477518 -0.04781277
v -0.06190564 -0.01136947 -0.04981726
v -0.06743550 -0.01098015 -0.04239263
v -0.05616261 -0.01578815 -0.04641322
v -0.04996428 -0.01548331 -0.04503438
v -0.05742919 -0.00764422 -0.04786632
v -0.05103901 -0.00692409 -0.04551966
v -0.03975024 -0.01440012 -0.04285793
v -0.02718308 -0.01339235 -0.04040170
v -0.04019448 -0.00468674 -0.04184959
v -0.02800999 -0.00193948 -0.03891165
v -0.05943936 -0.01597673 -0.01463041
v -0.06036837 -0.01455126 -0.00924235
v -0.06347523 -0.01373166 -0.00250013
v -0.04890361 -0.01424180 -0.00782879
v -0.05172417 -0.01346716 -0.00119955
v -0.03752621 -0.01549296 -0.00705988
v -0.03938929 -0.01474697 -0.00196968
v -0.04120203 -0.01469997 0.00268359
v -0.02253038 -0.02342101 -0.01702048
v -0.01346812 -0.02397229 -0.01288900
v -0.02399240 -0.02310820 -0.02940051
v -0.01781066 -0.02271627 -0.02763730
v -0.00868267 -0.02153744 -0.02427411
v -0.01612612 -0.02210851 -0.00722515
v -0.01723093 -0.02103590 -0.00117294
v -0.01671295 -0.02129961 -0.00354852
v -0.01836798 -0.02114921 0.00168385
v -0.00389956 -0.02293587 -0.00651951
v -0.00362989 -0.02179260 -0.00188536
v -0.00337662 -0.02129710 0.00146803
v 0.00119831 -0.01973732 -0.02032203
v 0.00719851 -0.01656340 0.00168044
v 0.00796589 -0.01703333 -0.00415956
v -0.01652178 -0.01284585 -0.03648469
v -0.01669446 -0.00137242 -0.03536063
v -0.00715229 -0.01276012 -0.03117197
v 0.00364312 -0.01111814 -0.02662453
v 0.00951512 -0.01521520 -0.01682969
v 0.01028983 -0.01023030 -0.02279126
v 0.01799029 -0.01372179 -0.00613466
v 0.01701476 -0.01446898 0.00364074
v 0.01836056 -0.01159008 -0.01484151
v 0.01791611 -0.00752128 -0.02057771
v 0.01018662 -0.00136975 -0.02775975
v 0.01694733 -0.00131996 -0.02521304
v -0.04982855 -0.02712363 0.03549953
v -0.04683036 -0.02707326 0.04010474
v -0.05301746 -0.02508622 0.03138354
v -0.05216656 -0.02568727 0.03246033
v -0.05090692 -0.02657706 0.03405439
v -0.05158463 -0.02660891 0.03492090
v -0.05158463 -0.02660891 0.03492090
v -0.05058774 -0.02569545 0.03487243
v -0.05054677 -0.02562982 0.03495965
v -0.04877768 -0.02675021 0.03724675
v -0.04786925 -0.02642741 0.03875714
v -0.05958917 -0.01792363 0.01691901
v -0.04996855 -0.01913839 0.01655041
v -0.06070591 -0.02122449 0.03281722
v -0.06468309 -0.01815932 0.02537548
v -0.05558663 -0.02235593 0.02504081
v -0.05459513 -0.02265517 0.04024330
v -0.05459513 -0.02265517 0.04024330
v -0.04962080 -0.02013116 0.03843297
v -0.05326817 -0.01894668 0.03329662
v -0.04939862 -0.01647194 0.04014163
v -0.03933978 -0.02335030 0.01730136
v -0.02716164 -0.02828022 0.01901970
v -0.04312412 -0.02908874 0.03770864
v -0.04653626 -0.02725610 0.04048624
v -0.04610784 -0.02707147 0.04121067
v -0.04576040 -0.02633515 0.02747411
v -0.03547419 -0.03069150 0.03030132
v -0.03363839 -0.01875187 0.00678450
v -0.04868681 -0.02610105 0.04223686
v -0.05836672 -0.01818747 0.04483592
v -0.04212642 -0.02776676 0.04782639
v -0.04174502 -0.02782998 0.04760079
v -0.04161140 -0.02761209 0.04788671
v -0.04147689 -0.02749165 0.04813751
v -0.04541169 -0.02677146 0.04238780
v -0.04089728 -0.02697269 0.04921828
v -0.03852926 -0.02454495 0.05374881
v -0.03845494 -0.02449409 0.05388152
v -0.03669912 -0.02426050 0.05397233
v -0.03803795 -0.02420874 0.05462614
v -0.03787486 -0.02344558 0.05516108
v -0.03383404 -0.02914139 0.04292137
v -0.02870712 -0.02373659 0.04939807
v -0.03779644 -0.02307860 0.05541832
v -0.03757968 -0.02129567 0.05641683
v -0.03709724 -0.01732745 0.05863920
v -0.03737852 -0.01603819 0.05869119
v -0.03452271 -0.01678796 0.05735617
v -0.04215253 -0.01838679 0.06115852
v -0.06786841 -0.01463222 0.00490703
v -0.05316606 -0.01568343 0.01016100
v -0.05479554 -0.01371479 0.00461830
v -0.06824053 -0.01439896 0.03197450
v -0.06142231 -0.01386430 0.03788318
v -0.05238719 -0.01404371 0.03647829
v -0.05213552 -0.01397593 0.03688863
v -0.04963318 -0.01237171 0.04131658
v -0.05768223 -0.00550133 0.04119341
v -0.05189286 -0.00809128 0.03946107
v -0.05207477 -0.00803858 0.03920252
v -0.04352685 -0.01588261 0.00767010
v -0.05808333 -0.01093001 0.04651603
v -0.04904583 -0.00915173 0.04341954
v -0.05520286 -0.00621998 0.04860437
v -0.04834749 -0.00658754 0.04544697
v -0.04670453 -0.00676434 0.04789409
v -0.05027736 -0.00215784 0.04415182
v -0.05059018 -0.00184320 0.04440736
v -0.05045076 -0.00344148 0.05388153
v -0.03762149 -0.01492452 0.05873610
v -0.03890643 -0.01003542 0.05859936
v -0.02656361 -0.01512030 0.05270836
v -0.03575427 -0.00910058 0.05670821
v -0.04349081 -0.01139502 0.06134979
v -0.04178068 -0.00512148 0.05604071
v -0.04633992 -0.00549394 0.05800203
v -0.04038713 -0.00752212 0.05727445
v -0.04287959 -0.00352108 0.05495835
v -0.04260449 -0.00370235 0.05531137
v -0.04454693 -0.00242248 0.05281874
v -0.02809653 -0.00584467 0.05116437
v -0.02174555 -0.02379148 0.00829624
v -0.01330826 -0.02749371 0.02164826
v -0.00892929 -0.02506395 0.01302741
v -0.02321093 -0.02928601 0.03399774
v -0.01509888 -0.02354538 0.04060609
v -0.00446661 -0.02223543 0.00625982
v -0.00656915 -0.02239795 0.03295011
v 0.00068902 -0.01925419 0.02512336
v 0.00677270 -0.01389352 0.01998769
v 0.00803788 -0.01570287 0.00984872
v 0.01659975 -0.01273397 0.01243563
v 0.01514622 -0.00937070 0.02020927
v -0.00331882 -0.01111880 0.03899334
v 0.00335122 -0.00589292 0.03340962
v 0.01119541 -0.00433184 0.02940115
v -0.01291203 -0.01286541 0.04479721
v -0.01462160 -0.00166753 0.04258089
v -0.06735451 0.00004593 -0.04807560
v -0.06615600 0.00002706 -0.03673860
v -0.05991166 0.00029728 -0.04269392
v -0.05432642 0.00177731 -0.03934773
v -0.04619741 0.00317428 -0.03693360
v -0.06323620 0.00312452 -0.03218635
v -0.06763505 0.00968504 -0.02300352
v -0.05070247 0.00692225 -0.03040287
v -0.05593554 0.01096401 -0.01987413
v -0.06285016 0.01326721 -0.01076900
v -0.03751274 0.00949399 -0.02737022
v -0.03350334 0.00623790 -0.03354477
v -0.06665333 0.01466203 -0.00272774
v -0.04683275 0.01574238 -0.00900491
v -0.05075525 0.01604497 -0.00099134
v -0.04150873 0.01348022 -0.01745552
v -0.02726608 0.01670431 -0.01499823
v -0.03198491 0.01835116 -0.00789306
v -0.03457484 0.01853118 0.00038629
v -0.00681469 -0.00063567 -0.03161928
v -0.02021400 0.01022240 -0.02888545
v -0.02347202 0.01281037 -0.02469663
v -0.00858807 0.00993728 -0.02785962
v 0.00289629 -0.00096600 -0.02950650
v 0.01333738 0.00502297 0.00037756
v 0.00144962 0.00904512 -0.02868602
v 0.00864045 0.00788633 -0.02888374
v 0.01569566 0.00786028 -0.02862045
v -0.01112708 0.01571261 -0.02189772
v -0.01432942 0.01972749 -0.01357096
v -0.01780491 0.02073880 -0.00680107
v -0.02097115 0.02107598 0.00185117
v -0.00482181 0.02170304 -0.01310027
v -0.00658497 0.02314614 -0.00590608
v -0.00171553 0.01674881 -0.02239507
v 0.00580053 0.01665149 -0.02469868
v 0.01366626 0.01946093 -0.02629636
v 0.01096384 0.02670149 -0.01537559
v 0.00262632 0.02333838 -0.01389493
v 0.00148121 0.02533367 -0.00604386
v 0.00944901 0.02816419 -0.00632051
v -0.06222087 0.00278830 0.03526226
v -0.05739214 0.01177476 0.02111718
v -0.04879501 0.00704404 0.03572979
v -0.03586671 0.00603100 0.03748467
v -0.04199216 0.01282104 0.02234750
v -0.02530450 0.01315144 0.02508558
v -0.04352103 0.00059776 0.04693213
v -0.03734380 -0.00117921 0.05152206
v -0.02955833 0.00208695 0.04515435
v -0.05445647 0.01524269 0.01151913
v -0.03920272 0.01745940 0.01047419
v -0.00443031 0.00150470 0.03653430
v -0.01973229 0.00714191 0.03773886
v -0.00840074 0.01222774 0.03048537
v 0.00269585 0.00486011 0.03212960
v 0.01031418 0.00712862 0.03102221
v -0.02441686 0.02002581 0.01180838
v -0.00967631 0.01784447 0.02180072
v -0.00957861 0.02265113 0.00886530
v -0.00068709 0.01465749 0.02785543
v 0.00774474 0.01623109 0.02693152
v -0.00112539 0.02082829 0.01954799
v 0.00683595 0.02320195 0.01887146
v -0.00113727 0.02466125 0.00731783
v 0.00755803 0.02667750 0.00690883
f 259 262 265
f 240 243 246
f 140 142 247
f 264 269 268
f 267 305 269
f 261 264 263
f 260 263 262
f 239 240 245
f 178 239 241
f 198 241 242
f 239 244 241
f 140 247 243
f 259 265 266
f 116 258 259
f 258 262 259
f 266 276 275
f 265 270 271
f 265 271 276
f 267 269 264
f 296 214 224
f 208 128 217
f 112 4 5
f 137 243 240
f 239 245 244
f 245 251 250
f 246 249 252
f 151 279 248
f 248 279 249
f 112 5 6
f 112 6 7
f 112 7 256
f 195 204 201
f 52 23 9
f 52 9 32
f 52 10 8
f 52 11 10
f 241 244 242
f 107 137 238
f 262 270 265
f 266 265 276
f 244 250 242
f 243 247 246
f 253 250 254
f 279 282 291
f 276 271 284
f 145 277 274
f 145 275 277
f 283 284 287
f 283 287 289
f 271 285 284
f 272 286 285
f 237 254 304
f 240 246 245
f 178 238 239
f 239 238 240
f 155 282 279
f 277 289 280
f 280 290 281
f 281 291 282
f 272 273 286
f 120 275 145
f 119 259 266
f 195 201 205
f 263 270 262
f 263 268 270
f 263 264 268
f 266 275 120
f 260 257 256
f 258 257 260
f 276 284 283
f 277 283 289
f 28 13 19
f 119 266 120
f 57 260 256
f 57 261 260
f 286 288 285
f 284 285 288
f 154 282 155
f 154 281 282
f 253 237 228
f 253 254 237
f 195 197 196
f 171 158 169
f 171 168 182
f 146 274 278
f 198 191 181
f 198 188 191
f 199 187 188
f 199 190 187
f 199 192 190
f 195 196 194
f 210 173 186
f 302 225 303
f 199 253 228
f 242 250 253
f 250 307 254
f 142 151 247
f 151 248 247
f 247 248 246
f 112 3 4
f 303 235 231
f 195 194 193
f 170 169 209
f 209 169 210
f 204 230 203
f 204 229 230
f 229 232 230
f 204 228 229
f 183 177 178
f 184 238 178
f 195 193 192
f 303 234 235
f 179 157 166
f 179 166 165
f 179 185 157
f 179 181 185
f 198 199 188
f 195 192 199
f 198 242 199
f 195 205 197
f 233 227 232
f 49 214 296
f 28 15 16
f 28 16 11
f 206 208 44
f 208 167 44
f 248 249 246
f 245 246 251
f 209 210 49
f 49 210 214
f 218 214 210
f 28 27 5
f 249 279 252
f 246 252 251
f 244 245 250
f 242 253 199
f 204 202 201
f 204 203 202
f 195 199 228
f 195 228 204
f 28 5 14
f 52 8 23
f 229 237 303
f 237 304 303
f 137 240 238
f 224 214 220
f 302 224 225
f 229 303 231
f 28 17 15
f 28 55 27
f 28 11 56
f 296 298 297
f 28 19 17
f 208 207 167
f 208 217 207
f 303 225 234
f 229 228 237
f 229 231 232
f 36 34 32
f 52 32 34
f 28 14 13
f 189 190 200
f 12 19 24
f 94 24 19
f 20 23 22
f 20 16 12
f 20 21 23
f 38 32 23
f 18 5 3
f 18 13 5
f 319 318 320
f 18 94 19
f 190 192 200
f 189 176 174
f 189 213 176
f 194 196 197
f 200 194 197
f 189 200 213
f 200 197 205
f 22 8 10
f 22 10 16
f 112 2 88
f 26 206 43
f 267 82 305
f 269 305 306
f 300 306 305
f 300 312 306
f 288 319 294
f 293 294 295
f 284 288 287
f 286 314 288
f 23 32 9
f 20 12 25
f 20 25 26
f 12 24 25
f 20 26 21
f 21 26 43
f 315 316 317
f 317 318 319
f 5 27 7
f 18 19 13
f 223 222 225
f 226 230 227
f 226 227 233
f 213 231 221
f 221 236 222
f 216 221 219
f 219 224 220
f 219 221 223
f 221 222 223
f 219 223 224
f 227 230 232
f 222 236 225
f 223 225 224
f 200 205 201
f 216 220 214
f 216 219 220
f 3 5 4
f 213 233 231
f 93 18 3
f 40 29 41
f 233 232 231
f 5 7 6
f 189 191 188
f 189 188 187
f 189 187 190
f 189 174 191
f 22 23 8
f 57 7 27
f 21 43 38
f 20 22 16
f 25 123 26
f 221 231 236
f 236 234 225
f 235 234 231
f 236 231 234
f 202 203 201
f 200 203 226
f 200 233 213
f 200 226 233
f 226 203 230
f 281 290 291
f 299 308 301
f 258 260 262
f 260 261 263
f 250 251 307
f 251 252 310
f 293 295 292
f 296 224 298
f 83 297 82
f 297 305 82
f 300 298 299
f 279 291 292
f 309 313 301
f 309 315 313
f 290 293 292
f 290 292 291
f 287 294 293
f 288 294 287
f 279 318 316
f 279 320 318
f 269 306 273
f 297 298 300
f 275 276 283
f 274 277 280
f 275 283 277
f 278 281 154
f 300 299 301
f 302 298 224
f 294 319 320
f 294 320 295
f 252 311 310
f 268 273 272
f 270 272 271
f 272 285 271
f 297 300 305
f 296 297 83
f 279 292 295
f 279 295 320
f 302 299 298
f 299 304 308
f 300 301 312
f 301 313 312
f 302 303 304
f 302 304 299
f 21 38 23
f 10 11 16
f 12 17 19
f 14 5 13
f 17 16 15
f 12 16 17
f 311 316 315
f 273 306 312
f 254 307 308
f 308 309 301
f 308 307 309
f 309 307 310
f 252 279 311
f 251 310 307
f 112 88 1
f 112 1 3
f 313 315 317
f 279 316 311
f 288 314 319
f 280 289 290
f 289 287 293
f 290 289 293
f 312 313 314
f 313 317 314
f 273 312 286
f 304 254 308
f 173 210 169
f 286 312 314
f 314 317 319
f 316 318 317
f 274 280 278
f 278 280 281
f 270 268 272
f 268 269 273
f 310 311 315
f 309 310 315
f 170 209 46
f 87 88 2
f 85 86 87
f 85 87 113
f 85 89 90
f 89 99 90
f 160 159 162
f 55 58 61
f 61 58 60
f 45 46 47
f 93 3 86
f 69 70 68
f 69 71 70
f 69 35 74
f 69 72 71
f 53 77 63
f 62 54 63
f 46 209 47
f 209 49 47
f 78 37 48
f 112 256 257
f 160 163 159
f 163 158 159
f 36 84 76
f 72 74 80
f 112 87 2
f 112 110 87
f 112 115 111
f 112 255 115
f 112 257 255
f 50 78 48
f 160 156 165
f 52 68 70
f 52 70 71
f 36 74 35
f 52 71 72
f 36 75 74
f 36 76 75
f 52 51 11
f 69 74 72
f 52 54 62
f 52 77 53
f 81 83 82
f 76 84 75
f 89 114 91
f 89 91 99
f 91 103 99
f 91 92 103
f 52 67 68
f 52 62 51
f 28 61 65
f 52 53 63
f 52 63 54
f 28 60 58
f 28 59 61
f 28 65 60
f 101 105 102
f 50 79 78
f 49 296 79
f 80 74 81
f 102 105 98
f 47 50 48
f 47 49 50
f 66 82 267
f 89 113 114
f 85 113 89
f 80 63 77
f 66 62 63
f 100 102 97
f 97 102 98
f 163 161 158
f 91 114 117
f 91 117 92
f 86 88 87
f 86 3 88
f 64 62 66
f 80 66 63
f 179 198 181
f 64 267 264
f 170 46 44
f 11 59 56
f 57 27 55
f 57 256 7
f 41 42 31
f 41 29 42
f 38 39 32
f 43 206 29
f 40 43 29
f 49 79 50
f 40 41 39
f 180 181 157
f 93 94 18
f 206 44 29
f 42 29 44
f 42 33 31
f 42 45 33
f 42 46 45
f 45 48 33
f 45 47 48
f 51 62 59
f 156 172 165
f 163 166 191
f 163 175 169
f 175 173 169
f 191 166 181
f 36 78 73
f 36 73 84
f 57 55 61
f 59 11 51
f 40 39 38
f 175 174 173
f 174 186 173
f 164 174 175
f 174 176 186
f 176 210 186
f 30 41 31
f 68 67 34
f 69 34 35
f 69 68 34
f 112 111 113
f 57 61 261
f 64 261 61
f 64 61 59
f 61 60 65
f 64 264 261
f 64 59 62
f 156 162 172
f 163 165 166
f 112 113 110
f 164 191 174
f 181 166 157
f 180 157 185
f 180 185 181
f 163 191 164
f 163 169 161
f 160 162 156
f 52 72 80
f 52 80 77
f 160 165 163
f 42 44 46
f 40 38 43
f 3 1 88
f 200 192 193
f 200 193 194
f 213 216 214
f 213 215 216
f 215 221 216
f 213 214 218
f 213 221 215
f 64 66 267
f 200 201 203
f 176 211 210
f 211 218 210
f 211 213 218
f 176 212 211
f 176 213 212
f 211 212 213
f 163 164 175
f 127 109 107
f 158 161 169
f 142 150 151
f 170 44 167
f 171 170 167
f 171 167 168
f 168 207 217
f 167 207 168
f 171 169 170
f 151 150 279
f 129 134 106
f 153 155 279
f 182 179 162
f 179 165 162
f 182 162 159
f 182 159 158
f 171 182 158
f 143 150 142
f 139 142 140
f 117 116 119
f 97 98 96
f 135 140 243
f 135 139 140
f 133 147 141
f 141 143 138
f 106 136 108
f 124 98 126
f 90 99 100
f 96 98 121
f 100 97 96
f 117 119 118
f 99 101 100
f 99 103 101
f 92 117 118
f 152 153 279
f 131 144 132
f 132 133 130
f 133 141 130
f 132 146 133
f 81 74 75
f 177 184 178
f 148 153 152
f 148 150 143
f 131 132 129
f 183 241 198
f 182 168 177
f 177 217 184
f 128 184 217
f 168 217 177
f 107 238 184
f 148 149 153
f 162 165 172
f 106 134 136
f 108 136 135
f 137 109 135
f 108 135 109
f 134 138 136
f 130 138 134
f 129 132 130
f 179 183 198
f 149 155 153
f 116 259 119
f 119 120 118
f 24 122 25
f 24 121 122
f 128 107 184
f 148 152 150
f 146 278 147
f 147 278 154
f 147 154 149
f 132 144 146
f 149 154 155
f 150 152 279
f 144 274 146
f 182 183 179
f 182 177 183
f 183 178 241
f 141 149 148
f 141 147 149
f 208 125 128
f 28 58 55
f 36 32 39
f 36 41 30
f 36 30 31
f 26 123 206
f 86 90 95
f 93 95 94
f 93 86 95
f 95 96 94
f 94 121 24
f 94 96 121
f 28 56 59
f 116 257 258
f 124 127 125
f 124 126 127
f 125 127 128
f 127 107 128
f 126 109 127
f 131 118 144
f 25 122 123
f 79 84 78
f 122 125 123
f 36 31 33
f 80 81 82
f 80 82 66
f 101 104 105
f 95 100 96
f 104 129 106
f 105 126 98
f 105 104 106
f 105 108 126
f 105 106 108
f 126 108 109
f 100 101 102
f 137 135 243
f 36 35 34
f 52 34 67
f 36 39 41
f 36 33 48
f 36 48 37
f 36 37 78
f 90 100 95
f 103 92 131
f 103 104 101
f 103 131 104
f 114 115 116
f 123 125 208
f 116 115 257
f 131 129 104
f 81 84 79
f 81 79 83
f 79 296 83
f 85 90 86
f 87 110 113
f 78 84 73
f 136 139 135
f 107 109 137
f 111 115 113
f 114 113 115
f 81 75 84
f 114 116 117
f 115 255 257
f 138 143 139
f 129 130 134
f 141 148 143
f 139 143 142
f 118 120 144
f 144 120 145
f 144 145 274
f 133 146 147
f 130 141 138
f 92 118 131
f 136 138 139
f 122 124 125
f 122 121 124
f 206 123 208
f 121 98 124

