# https://github.com/mikedh/trimesh
v -0.00945428 -0.00293725 -0.00803850
v -0.00430613 0.01189351 0.00643322
v -0.01180675 0.01426985 0.00081734
v -0.03256833 0.00131694 0.01138287
v -0.00157695 -0.00835164 -0.00977008
v -0.03315196 0.01258775 -0.00354366
v -0.02931195 0.00637139 -0.00794829
v -0.01232119 0.01187028 0.00725097
v -0.03217909 -0.00400531 -0.00363220
v -0.01416688 0.01201243 -0.00575605
v -0.03215855 -0.00471942 0.00050669
v -0.00895209 0.00338110 -0.00914251
v -0.03321828 0.01317236 0.00268038
v 0.00423712 -0.00305984 0.01154058
v -0.01373658 -0.00253947 -0.00814553
v -0.01620434 0.00469992 -0.00854787
v -0.00987833 0.00022830 0.01080005
v -0.03288244 0.00666191 0.01155374
v -0.03228595 -0.00322277 0.00821194
v -0.00276909 0.00111903 0.00038377
v -0.02981548 0.01352782 0.00191415
v 0.00380501 0.00496269 0.01161972
v -0.02929575 0.01281140 -0.00374668
v -0.03227301 -0.00227336 -0.00510289
v -0.00838814 0.00056811 -0.01379305
v -0.00648602 -0.00728683 -0.00371824
v -0.02938774 0.01156192 0.00804727
v -0.00246926 -0.00609804 0.00778490
v -0.00519819 -0.00464743 -0.01415124
v -0.03278208 0.00663086 -0.00757804
v -0.01006974 -0.00545926 -0.00380340
v -0.03312507 0.01106488 0.00856277
v -0.03214195 -0.00519529 0.00269714
v -0.03307116 0.01008125 0.00928833
v -0.00367209 0.01456332 0.00017833
v -0.00009064 -0.00967257 -0.00399252
v -0.02915429 0.00703189 0.01138937
v -0.02945634 -0.00454296 -0.00400170
v -0.00951130 -0.00489820 0.00704394
v -0.00450392 -0.00786092 0.00183261
v -0.03291221 0.00873028 -0.00620049
v -0.03314514 0.01153406 0.00712112
v -0.03241297 0.00031397 -0.00736819
v -0.03263565 0.00246829 0.01135438
v -0.02865996 -0.00617293 0.00249185
v -0.03218507 -0.00460040 0.00430073
v -0.00301120 0.01157419 -0.00764447
v -0.00387127 0.00623047 0.01049962
v -0.03319605 0.01294115 0.00099557
v -0.02861108 0.00160250 0.01153267
v 0.00383694 0.01195768 0.00734433
v -0.03236399 -0.00195028 0.00888481
v -0.01012780 -0.00594553 0.00128544
v -0.02936360 -0.00024858 -0.00774815
v -0.00365857 -0.00024941 0.01111916
v -0.02849054 -0.00402497 0.00851347
v -0.01115164 0.00642100 0.01091227
v -0.03255831 0.00279882 -0.00742190
f 27 37 8
f 8 37 57
f 26 31 1
f 1 31 15
f 28 39 40
f 40 39 53
f 17 39 55
f 55 39 28
f 23 10 7
f 7 10 16
f 40 53 26
f 26 53 31
f 1 29 5
f 55 28 14
f 55 22 48
f 48 51 2
f 21 27 3
f 3 27 8
f 7 16 54
f 54 16 15
f 12 25 1
f 1 25 29
f 1 5 26
f 26 5 36
f 3 35 10
f 10 35 47
f 17 57 50
f 50 57 37
f 8 57 2
f 2 57 48
f 31 38 15
f 15 38 54
f 53 39 45
f 45 39 56
f 39 17 56
f 56 17 50
f 16 10 12
f 12 10 47
f 53 45 31
f 31 45 38
f 8 2 3
f 3 2 35
f 16 12 15
f 15 12 1
f 3 10 21
f 21 10 23
f 57 17 48
f 48 17 55
f 22 55 20
f 55 14 20
f 14 28 20
f 28 40 20
f 40 26 20
f 26 36 20
f 36 5 20
f 5 29 20
f 29 25 20
f 25 12 20
f 12 47 20
f 47 35 20
f 35 2 20
f 2 51 20
f 51 48 20
f 48 22 20
f 54 38 9
f 50 37 44
f 38 45 33
f 56 50 52
f 21 23 49
f 23 7 30
f 27 21 42
f 45 56 46
f 37 27 32
f 7 54 43
f 9 24 54
f 44 4 50
f 33 11 38
f 52 19 56
f 49 13 21
f 30 41 23
f 42 32 27
f 46 33 45
f 32 34 37
f 43 58 7
f 54 24 43
f 37 18 44
f 38 11 9
f 50 4 52
f 23 6 49
f 23 41 6
f 21 13 42
f 56 19 46
f 37 34 18
f 7 58 30
f 52 4 44
f 44 18 34
f 34 32 42
f 42 13 49
f 49 6 41
f 41 30 58
f 58 43 24
f 24 9 11
f 11 33 46
f 46 19 52
f 52 44 34
f 34 42 49
f 49 41 58
f 58 24 11
f 11 46 52
f 52 34 49
f 49 58 11
f 11 52 49

