# https://github.com/mikedh/trimesh
v -0.01530151 0.00430517 0.00000489
v -0.02106138 0.00317794 -0.01050134
v -0.00257557 -0.00672032 0.00017812
v -0.02436372 0.00030858 -0.00194878
v -0.02130961 0.00070403 0.00116832
v -0.02459149 -0.00037805 -0.00745003
v -0.01945868 -0.00476557 -0.00849463
v -0.00631306 0.00695505 -0.00232807
v -0.00036102 0.00738247 -0.00052019
v 0.00124667 -0.00601139 -0.00251176
v -0.01725188 0.00318258 -0.01045377
v -0.00912387 0.00573681 0.00184069
v -0.01064447 -0.00354759 -0.00973071
v -0.00288242 0.00215487 0.00655930
v 0.00012559 -0.00642084 0.00103292
v -0.00430577 -0.00470005 0.00410925
v 0.00157462 0.00472021 -0.00589537
v -0.02458344 0.00395445 -0.00256660
v -0.00123879 0.00651687 0.00237571
v -0.02325991 0.00439038 -0.00389061
v -0.01655006 -0.00372756 -0.01111286
v -0.02088668 0.00334240 -0.00066044
v 0.00070705 0.00606973 -0.00352073
v -0.02290381 0.00453816 -0.00698297
v -0.01464522 0.00608928 -0.00492812
v -0.00193221 0.00585203 0.00465923
v 0.00239678 -0.00033789 -0.00730998
v -0.00234689 0.00221249 0.00674173
v 0.00168513 -0.00562719 -0.00394768
v -0.01505978 -0.00243238 0.00245685
v -0.01683130 -0.00127646 -0.01240522
v -0.02155705 -0.00410821 -0.00290085
v -0.02310841 -0.00254827 -0.00222720
v -0.00126391 -0.00461821 0.00491549
v 0.00165458 -0.00578380 -0.00381891
v 0.00243538 -0.00242904 -0.00696648
v -0.01222829 0.00315584 -0.00952758
v -0.00199593 -0.00196458 0.00658410
v 0.00024668 -0.00659192 0.00069767
v -0.01606818 -0.00520101 -0.00871712
v -0.01562014 0.00133331 0.00278188
v 0.00233572 0.00154457 -0.00753812
v -0.00125084 -0.00463482 0.00487888
v -0.01030809 -0.00060432 -0.01093168
v -0.01742745 0.00143829 -0.01211374
v -0.01057943 0.00587591 0.00039626
v -0.01413267 -0.00512762 0.00085844
v -0.00389008 0.00050968 -0.00942912
v -0.00795789 0.00521438 -0.00694420
v -0.02325134 -0.00316385 -0.00658944
v -0.02146698 0.00231405 -0.01129790
v 0.00153719 -0.00578048 -0.00383909
v -0.00197511 0.00549940 0.00486938
v -0.00653444 -0.00138583 0.00559790
v 0.00146557 0.00518843 -0.00566291
v -0.02029185 -0.00228674 0.00052619
v -0.01105534 0.00207884 -0.01050775
v -0.01983359 0.00608880 -0.00644275
v -0.01890160 -0.00474817 -0.00112303
v 0.00106148 0.00509799 -0.00579938
v -0.00584279 0.00507640 -0.00757969
v 0.00044456 0.00126868 -0.00814134
v -0.00151127 -0.00613062 -0.00436824
v -0.01544533 0.00368771 0.00108491
v -0.01184594 -0.00603124 -0.00729319
v -0.00126541 -0.00461623 0.00491965
v -0.02126412 -0.00050170 -0.01147048
v -0.02145349 -0.00486026 -0.00577323
v -0.00283204 -0.00127513 0.00664426
v -0.00443970 -0.00295843 -0.00878848
v -0.00126782 -0.00461631 0.00491820
v -0.02072379 0.00452960 -0.00193649
v -0.01788474 -0.00657630 -0.00450758
v -0.00232503 0.00181965 0.00676126
v -0.02043448 -0.00301320 -0.01007211
v -0.00214836 -0.00118897 0.00688223
v -0.01312819 -0.00701508 -0.00307862
v -0.02443569 0.00385892 -0.00734048
v -0.00864048 0.00659744 -0.00283779
v -0.00833069 0.00235828 0.00514311
v -0.00238123 0.00580337 0.00451699
v -0.00015402 -0.00251088 -0.00771777
f 48 61 62
f 62 61 60
f 64 1 22
f 22 1 72
f 12 46 64
f 64 46 1
f 1 46 25
f 25 46 79
f 37 11 25
f 25 11 58
f 79 49 25
f 25 49 37
f 58 72 25
f 25 72 1
f 20 18 72
f 72 18 22
f 46 12 79
f 79 12 8
f 12 81 8
f 12 80 81
f 81 80 14
f 64 41 12
f 12 41 80
f 41 64 5
f 5 64 22
f 79 8 49
f 49 8 61
f 61 8 60
f 18 4 22
f 22 4 5
f 30 41 56
f 56 41 5
f 4 33 5
f 5 33 56
f 47 30 59
f 59 30 56
f 30 47 54
f 54 47 16
f 33 32 56
f 56 32 59
f 41 30 80
f 80 30 54
f 80 54 14
f 14 54 69
f 4 18 6
f 6 18 78
f 18 20 78
f 78 20 24
f 37 49 57
f 57 49 61
f 11 37 45
f 45 37 57
f 61 48 57
f 57 48 44
f 45 57 31
f 31 57 44
f 45 51 11
f 11 51 2
f 24 2 78
f 78 2 51
f 16 47 3
f 3 47 77
f 52 3 63
f 71 69 16
f 16 69 54
f 70 82 63
f 63 82 52
f 70 48 82
f 82 48 62
f 13 44 70
f 70 44 48
f 13 70 65
f 65 70 63
f 21 13 40
f 40 13 65
f 3 77 63
f 63 77 65
f 77 73 65
f 65 73 40
f 13 21 44
f 44 21 31
f 67 31 75
f 75 31 21
f 75 7 50
f 50 7 68
f 75 21 7
f 7 21 40
f 75 50 67
f 67 50 6
f 67 6 51
f 51 6 78
f 51 45 67
f 67 45 31
f 47 59 77
f 77 59 73
f 68 73 32
f 32 73 59
f 68 7 73
f 73 7 40
f 68 32 50
f 50 32 33
f 33 4 50
f 50 4 6
f 72 58 20
f 20 58 24
f 24 58 2
f 2 58 11
f 81 14 28
f 14 69 76
f 62 60 17
f 82 62 27
f 52 82 36
f 8 81 19
f 60 8 9
f 69 71 66
f 71 16 15
f 16 3 39
f 3 52 10
f 28 53 81
f 76 74 14
f 17 42 62
f 27 36 82
f 36 29 52
f 19 9 8
f 9 23 60
f 66 38 69
f 15 43 71
f 39 15 16
f 10 39 3
f 60 23 55
f 81 26 19
f 81 53 26
f 14 74 28
f 60 55 17
f 62 42 27
f 52 29 35
f 69 38 76
f 52 35 10
f 71 43 34
f 71 34 66
f 23 9 19
f 19 26 53
f 53 28 74
f 74 76 38
f 38 66 34
f 15 39 10
f 10 35 29
f 29 36 27
f 27 42 17
f 17 55 23
f 23 19 53
f 53 74 38
f 38 34 43
f 43 15 10
f 10 29 27
f 27 17 23
f 23 53 38
f 38 43 10
f 10 27 23
f 23 38 10

