# https://github.com/mikedh/trimesh
v -0.00033334 0.00512915 0.00635891
v -0.00249397 -0.00571024 -0.00613958
v -0.02076467 -0.00507917 -0.00204173
v -0.00134189 -0.00614745 0.00389338
v -0.00036647 0.00660216 -0.00396883
v -0.00131878 -0.00003107 -0.00819208
v -0.01104928 0.00514852 0.00493825
v -0.02077723 0.00460465 0.00007862
v -0.01818894 -0.00273176 -0.00721736
v -0.02181132 -0.00327669 -0.00542556
v -0.01318152 -0.00748158 -0.00228068
v -0.02326277 0.00071797 0.00404926
v -0.01485571 0.00441606 -0.00348722
v -0.00598779 -0.00101854 -0.00819209
v -0.02548218 0.00118412 -0.00050138
v -0.02264057 -0.00201886 0.00334910
v -0.01289719 0.00305170 -0.00630084
v -0.01340919 -0.00412647 0.00582687
v -0.01767154 -0.00656949 -0.00236154
v -0.02019057 -0.00594204 0.00037963
v -0.00017901 0.00370503 -0.00740053
v -0.02512359 -0.00094160 -0.00131301
v 0.00004121 0.00001979 -0.00822688
v -0.00006881 0.00045081 0.00823100
v 0.00021540 -0.00305252 -0.00708823
v -0.00031961 0.00487309 0.00660621
v -0.01514197 0.00493259 0.00069711
v -0.01934548 0.00097588 0.00649505
v -0.02035410 -0.00463598 -0.00496353
v -0.00032974 0.00505339 0.00652242
v -0.02339531 0.00300684 0.00287368
v -0.00035782 0.00650124 -0.00449909
v -0.01914567 -0.00028390 -0.00738408
v -0.00009414 0.00087318 0.00834149
v -0.02310590 -0.00367055 -0.00192637
v 0.00034118 -0.00614309 0.00365579
v 0.00015688 -0.00331197 0.00722442
v -0.01757109 -0.00475319 -0.00571499
v 0.00037969 -0.00607204 -0.00463016
v -0.00800943 0.00596337 -0.00420739
v 0.00037458 -0.00649503 0.00117532
v -0.00574376 0.00261472 -0.00752223
v 0.00035173 -0.00545541 -0.00621632
v -0.01297305 -0.00499261 -0.00670514
v -0.00045716 0.00770174 0.00112781
v -0.01573780 0.00369961 0.00502981
v 0.00023923 -0.00457621 0.00562233
v -0.00092558 0.00361986 -0.00743711
v 0.00042610 -0.00707282 -0.00225416
v -0.01346179 -0.00665620 0.00237854
v -0.02123907 -0.00444159 0.00149558
v -0.01239935 0.00106124 -0.00750648
v -0.01867133 -0.00209945 0.00574521
v -0.01059190 0.00580849 -0.00274617
v -0.00170606 -0.00348967 0.00729114
v -0.00485473 0.00037353 0.00844327
v -0.01965662 0.00155393 -0.00585096
v -0.02028890 0.00394773 -0.00367609
v -0.02362201 0.00364907 -0.00041035
v -0.01762648 -0.00598473 0.00123074
v -0.01327191 -0.00051320 0.00785649
v -0.02327893 -0.00062699 -0.00570392
v -0.01296980 -0.00178879 -0.00790289
v -0.01795408 -0.00434179 0.00393812
v -0.00883278 0.00456791 0.00629571
v -0.01390414 0.00196352 0.00715135
v -0.02398285 0.00154532 -0.00511868
v -0.00669005 0.00709697 0.00117539
v -0.00116812 -0.00716072 -0.00215327
v -0.00878917 0.00652753 0.00124492
v -0.02305092 0.00322058 -0.00331256
v -0.00014145 0.00307957 -0.00757701
v -0.00027200 0.00516039 -0.00590527
v -0.02072382 0.00316593 0.00397821
f 42 40 48
f 65 7 66
f 66 7 46
f 74 28 46
f 46 28 66
f 46 7 27
f 27 7 70
f 13 58 27
f 27 58 8
f 70 54 27
f 27 54 13
f 68 40 70
f 70 40 54
f 8 74 27
f 27 74 46
f 12 31 15
f 15 31 59
f 31 12 74
f 74 12 28
f 70 7 68
f 68 7 65
f 66 61 65
f 65 61 56
f 61 66 53
f 53 66 28
f 12 16 28
f 28 16 53
f 61 53 18
f 18 53 64
f 53 16 64
f 64 16 51
f 18 64 50
f 50 64 60
f 50 4 18
f 18 4 55
f 20 60 51
f 51 60 64
f 61 18 56
f 56 18 55
f 16 12 22
f 22 12 15
f 13 54 17
f 17 54 40
f 17 57 13
f 13 57 58
f 40 42 17
f 17 42 52
f 57 17 33
f 33 17 52
f 57 67 58
f 58 67 71
f 4 50 69
f 69 50 11
f 14 6 2
f 14 42 6
f 6 42 48
f 63 52 14
f 14 52 42
f 63 14 44
f 44 14 2
f 9 63 38
f 38 63 44
f 69 11 2
f 2 11 44
f 11 19 44
f 44 19 38
f 52 63 33
f 33 63 9
f 62 33 10
f 10 33 9
f 10 29 35
f 35 29 3
f 10 9 29
f 29 9 38
f 10 35 62
f 62 35 22
f 62 22 67
f 67 22 15
f 67 57 62
f 62 57 33
f 50 60 11
f 11 60 19
f 3 19 20
f 20 19 60
f 3 29 19
f 19 29 38
f 35 3 51
f 51 3 20
f 51 16 35
f 35 16 22
f 74 8 31
f 31 8 59
f 59 71 15
f 15 71 67
f 59 8 71
f 71 8 58
f 6 48 72
f 48 40 32
f 68 65 30
f 65 56 26
f 40 68 5
f 56 55 24
f 4 69 49
f 69 2 43
f 55 4 47
f 2 6 25
f 72 23 6
f 32 73 48
f 30 1 68
f 26 30 65
f 5 32 40
f 24 34 56
f 49 41 4
f 43 39 69
f 47 37 55
f 25 43 2
f 48 73 21
f 48 21 72
f 6 23 25
f 68 1 45
f 56 34 26
f 68 45 5
f 55 37 24
f 4 41 36
f 69 39 49
f 4 36 47
f 1 30 26
f 26 34 24
f 24 37 47
f 47 36 41
f 41 49 39
f 39 43 25
f 25 23 72
f 72 21 73
f 73 32 5
f 5 45 1
f 1 26 24
f 24 47 41
f 41 39 25
f 25 72 73
f 73 5 1
f 1 24 41
f 41 25 73
f 73 1 41

