# https://github.com/mikedh/trimesh
v 0.00511665 -0.01034153 0.00048748
v -0.02382412 0.00248741 -0.01503431
v 0.00127669 0.00179532 0.01066454
v -0.02987338 -0.00530260 -0.01092316
v -0.02521158 -0.00764571 -0.00359468
v -0.00248130 -0.00780414 -0.00629146
v 0.01099971 0.01014931 0.01133683
v -0.03263031 0.00945827 0.00040003
v -0.02650163 0.01085298 0.00115055
v -0.00238889 -0.00034029 0.01490102
v 0.00113112 -0.00446314 -0.01041328
v -0.02957346 0.00426502 -0.01570171
v 0.00609247 0.01421236 -0.00014237
v -0.02969119 -0.00531975 -0.01085910
v -0.00480027 -0.00153567 0.00709336
v 0.00166378 0.00201739 0.00176103
v -0.00501522 0.01343609 -0.00247390
v -0.03173136 -0.00410212 -0.00051548
v -0.00368649 -0.00470889 -0.00847426
v -0.03237384 0.01025045 -0.00134072
v -0.02983687 -0.00543328 -0.00596105
v -0.02946564 -0.00132074 -0.01455475
v -0.00189440 -0.00728213 -0.00035020
v -0.03164415 -0.00449638 -0.00089673
v -0.02945275 -0.00131278 -0.01455884
v -0.02672631 -0.00128035 0.00415293
v -0.02957294 0.00425196 -0.01570060
v -0.00539624 0.00359829 0.00748967
v -0.03284966 0.00499562 0.00309031
v -0.02391265 -0.00386581 -0.01324110
v -0.00182494 -0.00315328 0.01025048
v -0.03129054 0.00977426 0.00029462
v -0.00476889 0.01017309 -0.00959131
v -0.00503000 0.00355729 -0.01159162
v -0.02402263 0.00909194 -0.01323362
v -0.02946514 -0.00131118 -0.01456067
v 0.00136500 -0.00836882 0.00989229
v -0.02668492 0.00446200 0.00439353
v -0.02436551 -0.00729747 -0.00902955
v -0.03187910 -0.00094069 0.00239500
v -0.02603953 -0.00600557 0.00111662
v -0.00563375 0.01051378 0.00474286
v -0.03101357 -0.00442460 -0.00079298
v -0.03034537 0.00942382 -0.01285706
v -0.02493096 0.01223985 -0.00581615
v 0.00414296 -0.00313824 -0.01134298
v 0.00510814 0.00754058 0.01027750
v -0.00326049 -0.00505886 0.00551719
v -0.02964372 0.01171468 -0.00549686
v -0.02990228 -0.00534614 -0.01074152
v -0.02959762 0.00943694 -0.01295870
v 0.00558706 0.01003670 -0.00802990
v 0.00355200 0.00785280 0.01639906
v -0.03066751 -0.00552239 -0.00624209
v -0.03243646 -0.00046904 0.00242562
v -0.03059836 0.00980062 -0.01150758
v -0.03237756 -0.00106006 0.00227120
v -0.03175024 0.01158078 -0.00538405
v -0.03285872 0.00392371 0.00348317
v -0.02955886 0.00426426 -0.01570137
v 0.00276382 0.00342821 -0.01106691
v -0.02957664 0.00428290 -0.01568893
v -0.03085151 -0.00535662 -0.00522630
v -0.03211353 0.00413630 0.00365836
f 3 53 47
f 47 53 7
f 31 10 3
f 3 10 53
f 11 61 46
f 9 38 42
f 42 38 28
f 11 6 19
f 39 14 30
f 30 14 25
f 23 37 48
f 15 48 31
f 31 48 37
f 35 33 2
f 2 33 34
f 26 38 40
f 40 38 64
f 6 1 23
f 14 39 21
f 21 39 5
f 41 26 43
f 43 26 40
f 45 35 49
f 49 35 51
f 35 2 51
f 51 2 60
f 45 49 9
f 9 49 32
f 45 9 17
f 17 9 42
f 2 34 30
f 30 34 19
f 5 41 21
f 21 41 43
f 64 38 32
f 32 38 9
f 30 25 2
f 2 25 60
f 17 52 33
f 15 28 26
f 26 28 38
f 42 28 47
f 47 28 3
f 6 39 19
f 19 39 30
f 23 48 5
f 5 48 41
f 48 15 41
f 41 15 26
f 34 33 61
f 61 33 52
f 23 5 6
f 6 5 39
f 17 42 13
f 34 61 19
f 19 61 11
f 17 33 45
f 45 33 35
f 28 15 3
f 3 15 31
f 7 53 16
f 53 10 16
f 10 31 16
f 31 37 16
f 37 23 16
f 23 1 16
f 1 6 16
f 6 11 16
f 11 46 16
f 46 61 16
f 61 52 16
f 52 17 16
f 17 13 16
f 13 42 16
f 42 47 16
f 47 7 16
f 21 43 24
f 64 32 8
f 32 49 58
f 40 64 59
f 49 51 56
f 43 40 57
f 60 25 36
f 51 60 62
f 25 14 4
f 14 21 54
f 24 63 21
f 8 29 64
f 58 20 32
f 59 55 40
f 56 58 49
f 57 18 43
f 36 27 60
f 62 44 51
f 4 22 25
f 54 50 14
f 21 63 54
f 64 29 59
f 32 20 8
f 40 55 57
f 51 44 56
f 43 18 24
f 60 27 12
f 60 12 62
f 25 22 36
f 14 50 4
f 22 4 50
f 50 54 63
f 63 24 18
f 18 57 55
f 55 59 29
f 29 8 20
f 20 58 56
f 56 44 62
f 62 12 27
f 27 36 22
f 22 50 63
f 63 18 55
f 55 29 20
f 20 56 62
f 62 27 22
f 22 63 55
f 55 20 62
f 62 22 55

