# https://github.com/mikedh/trimesh
v -0.02738882 -0.00410394 0.00711100
v -0.02499773 0.00412643 0.01384737
v -0.01576627 -0.00737326 0.02366722
v -0.00591023 0.00225934 -0.00819582
v -0.00298159 0.00786671 -0.00161831
v -0.00929452 -0.01045517 -0.01812886
v -0.00168874 -0.01214042 -0.00712460
v -0.01691048 -0.01275803 0.01990266
v -0.02625702 0.00270907 0.00980757
v -0.00414630 -0.01179637 -0.01075527
v -0.01577635 -0.00733394 0.02366652
v 0.00610146 -0.00029347 0.00922370
v -0.00954522 -0.00431563 -0.01621578
v -0.01576849 -0.00741051 0.02364990
v -0.00686479 -0.01106441 -0.01463997
v 0.00157042 -0.00375574 0.01164611
v -0.00682382 -0.01099877 -0.01455275
v 0.00481652 0.00459563 0.00908696
v -0.01727883 -0.00080345 0.02381098
v -0.01595530 -0.00051921 0.02320650
v -0.01436038 0.00370104 -0.00299637
v -0.00686723 0.01278784 -0.00510504
v -0.02153855 0.00455914 0.01930079
v -0.02339198 -0.00058035 0.00466516
v -0.02711935 0.00151931 0.00962667
v -0.01665402 -0.01261173 0.01991340
v -0.00866425 0.00058734 -0.01303411
v -0.01569401 -0.00735279 0.02363180
v -0.02342260 0.00484803 0.01421574
v -0.02017138 -0.01447791 0.01427106
v -0.01080431 -0.00908417 -0.00224116
v -0.00835182 0.00659247 -0.01030988
v -0.01888868 -0.01486262 0.01608932
v -0.01731682 0.00609794 0.01149336
v -0.02195296 -0.01366504 0.01084549
v 0.00197793 -0.01319894 -0.00191161
v -0.00816992 0.00653977 -0.01005133
v 0.00159653 -0.01313571 -0.00168601
v -0.02463065 0.00454374 0.01456500
v -0.01147991 0.00841107 -0.00090803
v -0.00914515 -0.00614165 0.01850805
v -0.02092371 0.00452201 0.02022743
v 0.00023213 0.00323603 0.01183738
v -0.00655441 0.01247321 -0.00536058
v -0.01769808 -0.01360585 0.01838070
v 0.00568500 -0.00957770 0.00511374
v -0.02288963 -0.00654749 0.00481414
v -0.02471234 -0.00882236 0.00713798
v -0.00532288 0.00547931 -0.00609286
v -0.00261697 0.00913711 0.00848963
v -0.00718397 -0.01194601 -0.01545801
v -0.01486906 -0.01318879 0.01248179
v 0.00282567 -0.01234164 -0.00029412
v -0.01464377 -0.00355642 -0.00467648
v 0.00519369 -0.00991391 0.00423641
v -0.02724405 -0.00301066 0.00670477
v -0.02292014 -0.01306587 0.01059445
v 0.00211155 -0.01298104 -0.00162569
v 0.00017621 -0.00936475 0.00780392
v -0.01063209 -0.01069108 0.01573444
v -0.00841257 0.00065512 -0.01262377
v -0.01978917 0.00486153 0.01981462
v -0.02772773 -0.00316635 0.00694328
v 0.00111846 0.01092870 0.00579897
v -0.01304849 0.00552814 0.01583075
v -0.00567568 -0.00184089 -0.00937077
v -0.00672781 0.01118957 0.00436913
v -0.02703364 0.00246199 0.01011040
v -0.00496387 -0.01147000 -0.00727554
v -0.00610561 -0.01249258 -0.01401288
v -0.01915392 -0.01174231 0.00752958
v -0.00542717 -0.01156469 0.00293924
v -0.00786168 -0.01197787 -0.01459150
v -0.01698296 -0.00659344 -0.01669518
v -0.02067960 0.00435815 0.00716690
v 0.00592651 -0.00844756 0.00590592
v -0.02062579 0.00422781 0.02057311
v -0.00281332 -0.01262505 -0.00902616
v 0.00333582 0.00710893 0.00776205
v -0.01087218 -0.00802412 -0.00926910
v -0.02238694 -0.01381231 0.01113087
v -0.00082399 0.01220857 0.00330634
v -0.00589786 -0.00550011 -0.01107943
v -0.01395928 0.00912972 -0.00831899
v -0.02573527 -0.00912187 0.00776341
v -0.01684183 -0.01265966 0.02004447
v 0.00662571 -0.00269640 0.00912680
v -0.00925396 0.00053141 0.01892709
v -0.01769936 0.00076674 -0.01162922
v -0.00462455 0.00804351 -0.00406543
f 40 84 21
f 67 22 40
f 72 31 38
f 38 31 69
f 67 40 34
f 34 40 75
f 54 31 47
f 47 31 71
f 31 72 71
f 71 72 52
f 16 41 59
f 59 41 60
f 21 54 24
f 24 54 47
f 50 67 65
f 65 67 34
f 40 21 75
f 75 21 24
f 88 43 65
f 65 43 50
f 59 60 72
f 72 60 52
f 41 16 88
f 88 16 43
f 65 62 88
f 88 62 20
f 88 20 41
f 41 20 28
f 41 28 60
f 60 28 26
f 60 26 52
f 65 34 62
f 62 34 29
f 34 75 29
f 29 75 9
f 75 24 9
f 9 24 56
f 71 52 35
f 24 47 56
f 56 47 48
f 35 48 71
f 71 48 47
f 21 89 54
f 80 69 54
f 54 69 31
f 73 80 74
f 59 72 55
f 72 38 53
f 43 16 87
f 16 59 46
f 67 50 64
f 50 43 18
f 38 69 7
f 69 80 10
f 80 73 70
f 15 73 74
f 13 74 80
f 83 80 54
f 66 54 89
f 27 89 21
f 4 21 84
f 32 84 40
f 49 40 22
f 44 22 67
f 46 76 16
f 7 36 38
f 64 82 67
f 18 79 50
f 53 55 72
f 87 12 43
f 55 46 59
f 40 49 32
f 84 32 4
f 21 4 27
f 89 27 66
f 54 66 83
f 80 83 13
f 74 13 15
f 70 10 80
f 10 78 69
f 67 5 44
f 22 44 49
f 12 87 76
f 79 18 12
f 7 78 10
f 79 12 76
f 82 5 67
f 15 6 73
f 73 51 70
f 38 58 53
f 38 36 58
f 69 78 7
f 73 6 51
f 43 12 18
f 16 76 87
f 50 79 64
f 58 36 7
f 4 79 76
f 76 55 58
f 76 46 55
f 10 51 15
f 10 70 51
f 4 64 79
f 32 37 4
f 55 53 58
f 19 11 28
f 39 23 62
f 45 33 52
f 29 9 68
f 9 56 63
f 56 48 85
f 77 19 20
f 48 35 57
f 35 52 33
f 26 28 14
f 20 62 77
f 62 29 39
f 52 26 45
f 83 66 58
f 28 20 19
f 58 7 83
f 66 4 58
f 66 61 4
f 7 15 83
f 15 17 83
f 7 10 15
f 4 76 58
f 66 27 61
f 23 39 2
f 62 42 77
f 26 86 8
f 26 8 45
f 35 81 57
f 56 1 63
f 35 30 81
f 9 25 68
f 29 2 39
f 1 85 57
f 57 81 30
f 30 33 45
f 45 8 86
f 86 14 3
f 11 19 77
f 77 42 23
f 25 1 30
f 2 68 25
f 25 63 1
f 1 57 30
f 30 45 86
f 86 3 11
f 11 77 23
f 14 86 26
f 63 25 9
f 33 30 35
f 57 85 48
f 85 1 56
f 62 23 42
f 68 2 29
f 28 11 3
f 28 3 14
f 11 23 25
f 30 86 11
f 25 30 11
f 23 2 25
f 15 51 6
f 4 61 27
f 17 15 13
f 13 83 17
f 4 37 90
f 37 32 90
f 32 49 90
f 49 44 90
f 44 5 90
f 5 82 90
f 82 64 90
f 64 4 90

