# https://github.com/mikedh/trimesh
v 0.00328984 -0.00188395 -0.00813965
v -0.01601510 -0.00499960 -0.00792276
v -0.01341925 0.00753306 -0.00674786
v -0.00197600 0.00812890 -0.00581938
v 0.00354343 -0.00538094 -0.00508176
v -0.01170903 -0.00188560 -0.01663733
v -0.00813527 0.00261611 -0.01458225
v -0.00298198 -0.00285743 0.00477063
v -0.01894101 0.00401292 -0.00555721
v -0.01682641 -0.00539275 -0.00854386
v 0.00434738 -0.00319165 -0.00646285
v -0.00133571 -0.00649458 -0.00239649
v -0.00880577 0.00221922 0.00185545
v -0.00400321 0.00604402 0.00347793
v -0.01840830 -0.00344956 -0.00624451
v -0.00867768 -0.00154016 0.00143833
v -0.01337270 -0.00494880 -0.01387748
v 0.00173385 0.00804634 -0.00320097
v 0.00480588 -0.00181475 -0.00725908
v -0.01912498 0.00393799 -0.00563809
v -0.01601201 0.00503468 -0.00421256
v -0.00338862 0.00414425 0.00492674
v -0.01197996 0.00223444 -0.01649687
v -0.01376673 0.00689031 -0.01262492
v -0.01917085 0.00096156 -0.00458774
v -0.01269654 0.00378486 -0.01550011
v 0.00190317 0.00801937 -0.00345918
v -0.01199762 0.00256820 -0.01649207
v -0.00530320 -0.00600688 -0.00414905
v -0.00118927 0.00860534 0.00125073
v -0.00772749 0.00587489 0.00084952
v 0.00175222 0.00797689 -0.00352938
v -0.00971395 -0.00423433 -0.01349418
v -0.01780611 0.00646296 -0.00783240
v -0.00237954 -0.00369467 0.00390146
v -0.00104823 0.00882435 0.00101948
v -0.00355701 -0.00489270 0.00064963
v -0.01639028 0.00178189 -0.00309728
v -0.00474484 -0.00247275 0.00370682
v 0.00448396 0.00378820 -0.00713952
v -0.00353643 -0.00009520 0.00543733
v -0.01454953 0.00670971 -0.01285011
v -0.01158756 -0.00551346 -0.01048265
v -0.00300387 0.00607713 0.00420657
v -0.01515617 -0.00582861 -0.01107972
v -0.00264029 -0.00562027 -0.00793772
v 0.00386215 0.00493585 -0.00626136
v -0.01849944 0.00514009 -0.00667916
v -0.01691721 0.00664788 -0.00920988
v -0.01387335 -0.00482489 -0.00678223
v -0.00836165 -0.00180169 -0.01487307
v -0.00028740 -0.00204453 -0.01023469
v -0.00120641 0.00879388 0.00091038
v -0.01445176 -0.00592646 -0.01215494
v -0.01629491 -0.00142496 -0.00369939
v 0.00116173 -0.00557766 -0.00623700
v -0.00040237 -0.00599064 0.00101868
v -0.01399085 -0.00578945 -0.01179749
v -0.01883436 -0.00296792 -0.00562242
v -0.01264684 -0.00439491 -0.01502925
v -0.00103202 -0.00551854 0.00195406
v -0.01913886 0.00372565 -0.00560257
v -0.00726545 -0.00456902 -0.00086548
v 0.00473072 0.00020090 -0.00727849
v -0.00386572 0.00163087 0.00582756
v -0.01183756 -0.00221843 -0.01641767
v -0.00972035 0.00732305 -0.01107426
v -0.00489731 0.00858960 -0.00169904
v -0.00545281 0.00150399 0.00464225
v -0.01768701 0.00662306 -0.00802602
v -0.01953532 0.00076254 -0.00479550
v 0.00119304 -0.00669721 -0.00138417
v -0.01938930 0.00005775 -0.00497259
v -0.00026610 0.00369553 -0.00985249
v 0.00220431 -0.00632060 -0.00296238
v -0.01853680 -0.00280264 -0.00542416
v 0.00355347 0.00367302 -0.00760622
f 63 37 16
f 16 37 39
f 31 14 68
f 68 14 53
f 68 53 4
f 4 53 32
f 13 69 31
f 31 69 14
f 52 46 51
f 51 46 33
f 74 4 77
f 77 4 32
f 16 55 63
f 63 55 50
f 13 38 16
f 16 38 55
f 16 39 13
f 13 39 69
f 68 3 31
f 31 3 21
f 63 50 29
f 29 50 43
f 74 52 7
f 7 52 51
f 46 52 56
f 56 52 1
f 29 43 46
f 46 43 33
f 4 74 67
f 67 74 7
f 31 21 13
f 13 21 38
f 3 68 67
f 67 68 4
f 52 74 1
f 1 74 77
f 29 46 12
f 12 46 56
f 63 29 37
f 37 29 12
f 67 7 24
f 67 24 3
f 21 9 38
f 38 9 25
f 58 33 43
f 38 25 55
f 55 25 76
f 50 2 43
f 43 2 58
f 76 2 55
f 55 2 50
f 12 56 75
f 14 69 65
f 37 12 57
f 69 39 41
f 77 32 27
f 1 77 40
f 32 53 36
f 39 37 35
f 53 14 44
f 56 1 11
f 75 72 12
f 65 22 14
f 57 61 37
f 41 65 69
f 27 47 77
f 40 64 1
f 36 18 32
f 35 8 39
f 44 30 53
f 11 5 56
f 56 5 75
f 14 22 44
f 12 72 57
f 39 8 41
f 77 47 40
f 1 64 19
f 32 18 27
f 37 61 35
f 53 30 36
f 1 19 11
f 75 5 11
f 11 19 64
f 64 40 47
f 47 27 18
f 18 36 30
f 30 44 22
f 22 65 41
f 41 8 35
f 35 61 57
f 57 72 75
f 75 11 64
f 64 47 18
f 18 30 22
f 22 41 35
f 35 57 75
f 75 64 18
f 18 22 35
f 35 75 18
f 24 7 28
f 3 24 49
f 21 3 70
f 9 21 34
f 7 51 23
f 51 33 66
f 33 58 17
f 25 9 62
f 2 76 15
f 58 2 10
f 76 25 73
f 28 26 24
f 49 70 3
f 70 34 21
f 34 48 9
f 23 28 7
f 66 6 51
f 17 60 33
f 62 71 25
f 15 10 2
f 10 45 58
f 73 59 76
f 51 6 23
f 33 60 66
f 24 42 49
f 9 48 20
f 24 26 42
f 9 20 62
f 76 59 15
f 58 45 54
f 25 71 73
f 58 54 17
f 23 6 66
f 66 60 17
f 17 54 45
f 45 10 15
f 15 59 73
f 73 71 62
f 62 20 48
f 48 34 70
f 70 49 42
f 42 26 28
f 28 23 66
f 66 17 45
f 45 15 73
f 73 62 48
f 48 70 42
f 42 28 66
f 66 45 73
f 73 48 42
f 42 66 73

