# https://github.com/mikedh/trimesh
v -0.02510081 -0.00080856 0.01469989
v -0.00307193 -0.01275789 -0.00679315
v 0.00899083 -0.00802305 0.01479324
v -0.00954869 -0.00322953 -0.01902834
v -0.02479345 0.00632855 0.01783981
v -0.02554347 0.00315062 0.01550374
v -0.02261483 0.00875799 0.02208124
v -0.02892776 -0.00956389 0.00557069
v -0.02132198 -0.01124913 0.01657495
v -0.01408994 0.00119651 0.00845629
v -0.02377954 -0.01090508 0.01294429
v -0.01353179 0.00059782 0.03292326
v -0.02917846 -0.00342435 0.00748377
v -0.02533846 0.00318244 0.01582924
v 0.02477873 -0.00373185 -0.00068948
v -0.01427916 0.00138093 0.00960148
v -0.02649803 -0.01017312 0.00905958
v -0.02645706 -0.01010748 0.00914680
v -0.01481672 0.00548692 0.03278651
v -0.02251970 0.00867889 0.02219717
v 0.00087877 -0.01376367 0.00818489
v 0.01117768 0.00265692 0.01898436
v -0.02829749 0.00147862 0.01066544
v -0.00461741 -0.00821425 0.02358522
v -0.02798507 0.00748375 0.01338967
v -0.01765532 -0.01230765 0.02178795
v -0.02780316 0.00743106 0.01364823
v -0.02538393 -0.00444564 0.01290629
v -0.02618766 0.01336450 0.01833897
v -0.01260942 -0.00873816 0.02815948
v 0.01965939 0.01702703 0.01072145
v -0.01394824 -0.00868641 0.02881329
v 0.00946811 0.01385480 0.01676804
v 0.01078145 -0.01197138 -0.00416459
v -0.02495612 0.00637060 0.01760669
v -0.03149692 -0.00683359 -0.00077203
v -0.02681721 -0.01105473 0.00824154
v -0.01166456 0.00642176 0.03089536
v -0.01680757 -0.01145035 0.02340543
v -0.01443955 -0.00902262 0.02793596
v -0.01752169 -0.01208975 0.02207386
v -0.02804581 0.00154640 0.01107578
v -0.01043300 -0.00126563 0.03154333
v -0.00974434 -0.01361905 0.01710852
v -0.01325409 0.01434312 0.02570921
v -0.00247391 0.00040203 0.02689551
v 0.02077089 0.00440354 0.01318049
v -0.01943133 0.01612009 0.02111929
v -0.01851478 0.01181999 0.02949853
v -0.01903442 -0.01356641 0.01189579
v 0.00234416 -0.00826914 -0.01751661
v -0.02617420 0.01335081 0.01835443
v -0.02530892 -0.00094960 0.01432878
v -0.02894662 -0.00327013 0.00789611
v -0.02573885 -0.01160130 0.00968668
v -0.01370674 -0.00755627 0.02960547
v -0.02244656 -0.01173377 0.01467339
v -0.01629742 0.00800022 0.03146161
v -0.00546862 0.01760928 0.01934150
v -0.00400683 0.00967767 0.02535153
v -0.02167070 -0.01081282 0.00166126
v -0.02045723 0.01309986 0.02700590
v -0.02553110 -0.00460882 0.01262012
v -0.01300753 -0.00180512 0.03282635
v -0.01138449 -0.01516916 0.00448847
v -0.01525008 -0.00782797 -0.00851149
v 0.01752056 -0.00687561 0.00713727
v -0.02386031 0.00998053 0.02063332
f 44 3 21
f 24 3 44
f 3 47 67
f 22 47 3
f 24 22 3
f 46 22 24
f 22 60 33
f 46 60 22
f 33 47 22
f 31 47 33
f 2 21 34
f 65 21 2
f 21 67 34
f 3 67 21
f 65 44 21
f 50 44 65
f 60 59 33
f 48 59 45
f 45 60 38
f 59 60 45
f 38 46 43
f 60 46 38
f 46 30 43
f 24 30 46
f 65 61 50
f 65 66 61
f 2 66 65
f 2 4 51
f 67 15 34
f 47 15 67
f 10 61 66
f 10 36 61
f 10 48 45
f 10 59 48
f 10 33 59
f 10 31 33
f 10 47 31
f 10 15 47
f 10 34 15
f 10 2 34
f 10 66 4
f 10 4 2
f 16 36 61
f 16 61 66
f 45 48 16
f 48 59 16
f 33 31 16
f 59 33 16
f 49 45 38
f 55 50 61
f 31 47 16
f 16 15 47
f 16 34 15
f 16 2 34
f 37 61 36
f 16 66 2
f 39 30 24
f 41 24 44
f 19 38 43
f 64 43 30
f 16 36 8
f 10 45 62
f 36 10 17
f 9 44 50
f 10 35 25
f 10 29 35
f 10 7 29
f 16 18 54
f 45 16 20
f 36 8 37
f 43 12 19
f 30 56 64
f 38 58 49
f 61 37 55
f 24 41 39
f 44 26 41
f 50 57 9
f 17 8 36
f 62 7 10
f 8 18 16
f 20 62 45
f 40 32 30
f 39 40 30
f 64 12 43
f 32 56 30
f 49 62 45
f 19 58 38
f 9 26 44
f 11 57 50
f 55 11 50
f 10 13 17
f 10 63 13
f 10 53 63
f 10 23 53
f 10 6 23
f 10 25 6
f 17 18 63
f 9 57 11
f 56 32 40
f 11 55 37
f 16 54 28
f 16 28 1
f 16 1 42
f 16 42 14
f 16 14 27
f 16 27 5
f 16 5 52
f 16 52 20
f 13 54 18
f 25 27 6
f 40 39 41
f 19 12 64
f 9 11 17
f 11 37 17
f 56 41 9
f 58 19 56
f 56 40 41
f 41 26 9
f 19 64 56
f 6 49 58
f 53 23 42
f 9 17 63
f 9 63 53
f 53 6 9
f 6 58 9
f 58 56 9
f 53 42 6
f 63 18 13
f 8 17 18
f 18 17 13
f 17 37 8
f 42 23 6
f 6 27 14
f 14 42 6
f 20 52 68
f 52 5 68
f 5 27 68
f 27 25 68
f 25 35 68
f 35 29 68
f 29 7 68
f 7 62 68
f 62 49 68
f 49 62 68
f 62 20 68

