# https://github.com/mikedh/trimesh
v -0.00314565 0.00546563 -0.00887899
v -0.00431040 -0.00048892 0.00711453
v -0.00637116 0.00773985 0.00199136
v -0.02388153 0.00569436 -0.00815400
v -0.02227385 -0.00769951 -0.01014558
v -0.00189879 0.00786076 0.00411207
v -0.00026548 -0.00768220 0.00251679
v 0.00124494 -0.00806465 -0.00346512
v 0.00175699 -0.00795990 -0.00365323
v -0.02170283 0.00097246 0.00052658
v -0.00322981 -0.00797603 -0.00496247
v -0.00779941 -0.00069214 0.00559394
v -0.02339492 -0.00810895 -0.00660090
v -0.01925028 -0.00754590 -0.01100308
v -0.00588450 0.00842352 -0.00355723
v -0.02298785 -0.00826702 -0.00688349
v 0.00147041 -0.00812379 -0.00273402
v 0.00309857 -0.00074377 -0.00938251
v -0.02194589 0.00303210 -0.01352918
v -0.02475930 0.00482876 -0.00525810
v -0.01887896 0.00694348 -0.00653066
v 0.00264046 -0.00594557 -0.00682072
v -0.00791697 0.00406630 0.00499885
v -0.00411782 0.00442295 0.00655434
v -0.02281346 0.00438162 -0.01115454
v -0.00201852 -0.00028166 -0.01067254
v -0.02545272 0.00416392 -0.00297458
v -0.02112374 -0.00202600 -0.01494379
v -0.02586740 0.00052438 -0.00089208
v -0.02183538 -0.00731530 -0.01158149
v -0.02478443 -0.00630632 -0.00271832
v -0.02330730 0.00573560 -0.00797959
v -0.00277350 -0.00497947 0.00601311
v -0.02186594 -0.00747191 -0.01145272
v -0.02108514 -0.00411715 -0.01460030
v 0.00205985 -0.00577373 -0.00705803
v 0.00163491 -0.00817392 -0.00322977
v -0.02551645 -0.00365269 -0.00104971
v -0.00697435 -0.00509835 0.00450807
v -0.02167898 -0.00237428 0.00063714
v -0.00260696 0.00463457 0.00700743
v -0.00178008 0.00838374 0.00363064
v -0.02327384 -0.00828003 -0.00693614
v -0.02118480 -0.00014354 -0.01517194
v -0.02477135 -0.00632293 -0.00275493
v -0.00482887 -0.00796161 0.00006624
v -0.01795396 0.00441823 -0.01191172
v -0.00252739 0.00177674 0.00739422
v -0.02239551 -0.00622621 -0.00127429
v -0.02549562 0.00381129 -0.00276444
v 0.00204486 0.00565608 -0.00755117
v 0.00270790 -0.00517098 -0.00719980
v -0.02205494 0.00350032 -0.01329672
v -0.01821982 0.00028900 -0.01422621
v 0.00206572 0.00562500 -0.00760856
v -0.00175888 -0.00513092 0.00655390
v -0.02125576 0.00461877 -0.00164501
v -0.01867525 -0.00404099 -0.01390109
v -0.02478592 -0.00630434 -0.00271416
v -0.00003840 0.00909493 -0.00189290
v 0.00212748 0.00525678 -0.00771744
v -0.00171501 0.00841774 0.00342264
v -0.02584555 0.00013154 -0.00087255
v -0.00254441 -0.00032872 0.00791225
v -0.00204264 -0.00321060 0.00700356
v -0.02566887 -0.00287709 -0.00075159
v 0.00211228 -0.00063773 -0.00969490
v -0.00271588 -0.00571089 -0.00848823
v -0.00003553 -0.00807992 0.00189623
v -0.00038878 -0.00802254 0.00170642
v -0.02037211 -0.00845482 -0.00576917
f 39 46 33
f 33 46 70
f 23 24 3
f 12 2 23
f 23 2 24
f 54 26 58
f 58 26 68
f 39 49 46
f 46 49 71
f 12 40 39
f 39 40 49
f 12 39 2
f 2 39 33
f 3 57 23
f 23 57 10
f 46 71 11
f 11 71 14
f 1 26 47
f 47 26 54
f 68 26 36
f 36 26 67
f 11 14 68
f 68 14 58
f 15 1 21
f 21 1 47
f 23 10 12
f 12 10 40
f 57 3 21
f 21 3 15
f 26 1 67
f 68 36 11
f 11 36 8
f 11 8 46
f 46 8 70
f 21 47 32
f 21 32 57
f 71 16 14
f 3 24 6
f 15 3 42
f 8 36 22
f 24 2 48
f 70 8 17
f 2 33 65
f 1 15 51
f 33 70 7
f 36 67 18
f 67 1 55
f 6 42 3
f 42 62 15
f 22 9 8
f 48 41 24
f 17 69 70
f 65 64 2
f 51 55 1
f 7 56 33
f 18 52 36
f 55 61 67
f 15 62 60
f 8 9 37
f 2 64 48
f 8 37 17
f 33 56 65
f 67 61 18
f 15 60 51
f 70 69 7
f 24 41 6
f 36 52 22
f 42 6 41
f 48 64 65
f 65 56 7
f 7 69 17
f 17 37 9
f 9 22 52
f 52 18 61
f 61 55 51
f 51 60 62
f 62 42 41
f 41 48 65
f 65 7 17
f 17 9 52
f 52 61 51
f 51 62 41
f 41 65 17
f 17 52 51
f 51 41 17
f 32 47 53
f 57 32 20
f 10 57 27
f 40 10 29
f 47 54 19
f 54 58 28
f 58 14 34
f 49 40 66
f 14 16 5
f 16 71 31
f 71 49 59
f 53 25 32
f 20 27 57
f 27 50 10
f 29 63 40
f 19 53 47
f 28 44 54
f 34 30 58
f 66 38 49
f 5 34 14
f 31 45 16
f 59 31 71
f 10 50 29
f 40 63 66
f 54 44 19
f 58 35 28
f 58 30 35
f 32 4 20
f 32 25 4
f 49 38 59
f 16 45 13
f 16 13 43
f 16 43 5
f 20 4 25
f 25 53 19
f 19 44 28
f 28 35 30
f 30 34 5
f 5 43 13
f 45 31 59
f 59 38 66
f 66 63 29
f 29 50 27
f 27 20 25
f 25 19 28
f 28 30 5
f 5 13 45
f 45 59 66
f 66 29 27
f 27 25 28
f 28 5 45
f 45 66 27
f 27 28 45

