# https://github.com/mikedh/trimesh
v -0.02320248 0.00380721 -0.00824681
v 0.00036239 -0.00042648 -0.00794136
v 0.00090002 0.00418046 -0.00655316
v -0.00156525 0.00495673 0.00751557
v -0.02489197 -0.00135466 -0.00588514
v -0.01870700 -0.00012716 -0.01088623
v -0.00007015 -0.00653063 0.00248036
v -0.01465701 0.00577939 -0.00106147
v -0.01177698 -0.00045421 -0.00984444
v -0.02092895 0.00173264 0.00387370
v -0.02272345 -0.00380751 -0.00620038
v -0.02522456 0.00173963 0.00028213
v -0.00899410 0.00709549 -0.00000351
v -0.00156225 0.00378887 0.00786884
v -0.01859644 0.00382426 -0.00854974
v -0.02317115 -0.00008846 -0.00978431
v -0.00614447 0.00026380 0.00799582
v -0.02413614 -0.00287056 -0.00279106
v -0.00379688 -0.00694399 0.00273797
v -0.00159783 -0.00411167 0.00676015
v -0.02110759 -0.00388970 0.00115347
v -0.02131999 -0.00143845 0.00322326
v 0.00137445 -0.00047191 -0.00783124
v -0.00958490 0.00514380 0.00581834
v -0.01850647 0.00545021 -0.00691708
v 0.00065263 -0.00497599 -0.00585857
v -0.00076303 0.00812916 0.00185026
v -0.02591500 0.00063296 -0.00533060
v -0.01263372 -0.00415552 -0.00873427
v -0.00625413 0.00766869 0.00091387
v -0.02569215 0.00384685 -0.00413625
v -0.00060155 -0.00640510 0.00317983
v 0.00075013 -0.00692664 -0.00215706
v -0.00143099 -0.00062056 0.00850633
v -0.01753337 -0.00300604 -0.00966956
v -0.02433785 0.00499420 -0.00347728
v 0.00136202 -0.00158729 -0.00740498
v -0.00941298 0.00657822 -0.00377713
v -0.02377201 0.00392324 0.00037078
v -0.01300719 0.00523025 -0.00558705
v -0.01112551 0.00586112 0.00379617
v 0.00032281 0.00681942 -0.00403914
v -0.02253023 -0.00451633 -0.00357071
v 0.00094759 0.00395282 -0.00675711
v -0.00021462 -0.00643460 0.00328876
v -0.01523668 0.00255857 0.00524169
v -0.00083663 -0.00455482 0.00630392
v -0.02044616 -0.00596026 -0.00244854
v 0.00032827 -0.00686120 -0.00220336
v 0.00082236 -0.00660072 -0.00267996
v -0.01900482 -0.00592549 -0.00617685
v -0.01907392 0.00187869 -0.00994324
v -0.02301374 0.00499628 -0.00692730
v -0.00456888 -0.00045539 -0.00877972
v -0.00143793 -0.00056059 0.00852761
v -0.01542832 0.00454447 0.00351362
v -0.00251823 -0.00740219 -0.00263094
v -0.00495278 -0.00426382 0.00650888
v -0.01217964 0.00227351 -0.00922304
v 0.00108376 0.00251569 -0.00709162
v -0.01533349 -0.00407441 0.00357496
v 0.00005212 0.00716035 -0.00257557
v -0.01522596 -0.00047973 0.00566871
v -0.00223393 -0.00504895 -0.00669087
v -0.02069153 0.00401971 0.00219341
v 0.00128096 -0.00495159 -0.00586636
v -0.00139932 -0.00084819 0.00839470
v -0.00638876 0.00617143 -0.00522071
v -0.00540571 0.00299940 -0.00804146
v -0.02538898 -0.00082981 -0.00139668
v -0.01244561 0.00434372 -0.00741241
v -0.00096397 -0.00407942 0.00689242
v -0.01493639 -0.00690642 -0.00012571
v -0.02353030 0.00223432 -0.00910599
v -0.01367172 -0.00695826 -0.00506031
v -0.00139649 0.00550476 0.00636161
v -0.02037631 0.00623807 -0.00244580
v -0.02135678 -0.00251042 -0.00932474
f 46 56 10
f 10 56 65
f 24 41 46
f 46 41 56
f 56 41 8
f 8 41 13
f 40 25 8
f 8 25 77
f 13 38 8
f 8 38 40
f 77 65 8
f 8 65 56
f 65 39 10
f 10 39 12
f 13 41 30
f 30 41 24
f 46 63 24
f 24 63 17
f 22 63 10
f 10 63 46
f 30 68 13
f 13 68 38
f 70 22 12
f 12 22 10
f 63 22 61
f 61 22 21
f 22 70 21
f 21 70 18
f 61 21 73
f 73 21 48
f 73 19 61
f 61 19 58
f 18 43 21
f 21 43 48
f 61 58 63
f 63 58 17
f 70 12 28
f 28 12 31
f 12 39 31
f 31 39 36
f 40 38 71
f 71 38 68
f 25 40 15
f 15 40 71
f 68 69 71
f 71 69 59
f 71 59 15
f 15 59 52
f 1 53 15
f 15 53 25
f 36 53 31
f 31 53 1
f 32 19 49
f 49 19 57
f 19 73 57
f 57 73 75
f 49 57 26
f 26 57 64
f 19 32 58
f 58 32 20
f 54 2 64
f 64 2 26
f 54 69 2
f 54 9 69
f 69 9 59
f 9 54 29
f 29 54 64
f 6 9 35
f 35 9 29
f 57 75 64
f 64 75 29
f 75 51 29
f 29 51 35
f 9 6 59
f 59 6 52
f 74 52 16
f 16 52 6
f 16 78 5
f 5 78 11
f 16 6 78
f 78 6 35
f 16 5 74
f 74 5 28
f 74 28 1
f 1 28 31
f 1 15 74
f 74 15 52
f 73 48 75
f 75 48 51
f 11 51 43
f 43 51 48
f 11 78 51
f 51 78 35
f 5 11 18
f 18 11 43
f 18 70 5
f 5 70 28
f 65 77 39
f 39 77 36
f 36 77 53
f 53 77 25
f 26 2 37
f 69 68 3
f 30 24 4
f 24 17 14
f 68 30 62
f 17 58 34
f 58 20 67
f 20 32 45
f 49 26 66
f 32 49 33
f 2 69 44
f 37 66 26
f 3 44 69
f 4 76 30
f 14 4 24
f 62 42 68
f 34 55 17
f 67 34 58
f 45 47 20
f 66 50 49
f 33 7 32
f 44 60 2
f 20 72 67
f 2 60 23
f 2 23 37
f 68 42 3
f 30 76 27
f 17 55 14
f 30 27 62
f 20 47 72
f 49 50 33
f 32 7 45
f 44 3 42
f 42 62 27
f 76 4 14
f 14 55 34
f 67 72 47
f 47 45 7
f 7 33 50
f 50 66 37
f 37 23 60
f 60 44 42
f 42 27 76
f 76 14 34
f 34 67 47
f 47 7 50
f 50 37 60
f 60 42 76
f 76 34 47
f 47 50 60
f 60 76 47

