# https://github.com/mikedh/trimesh
v -0.00312313 -0.00939590 0.01145194
v -0.00517108 0.00132903 -0.00741312
v -0.00277999 0.00955940 -0.00067675
v -0.02332396 -0.00880912 0.01296237
v -0.00333288 -0.00945295 -0.00131284
v 0.00645147 -0.00194029 0.00914310
v 0.00530726 -0.00732506 0.00537854
v -0.02246361 -0.00801693 0.02384623
v -0.02648533 0.00175300 0.01929351
v 0.00644139 -0.00190097 0.00914240
v -0.02361300 0.00376236 0.01460171
v -0.01928402 0.00313898 0.00343042
v -0.00897997 0.00832251 0.00193955
v -0.00900300 0.00163540 0.01565452
v -0.02320332 -0.00143616 0.02415906
v -0.01321415 0.00561335 0.01098217
v 0.00644925 -0.00197754 0.00912578
v -0.02388160 0.00201389 0.02093384
v -0.01842367 -0.00117746 0.00109397
v 0.00493891 0.00462952 0.00928687
v -0.01832378 -0.01188685 0.01844617
v -0.02759097 0.00042701 0.01627940
v -0.02225593 -0.00711543 0.00815454
v -0.01781683 0.00349886 0.01413400
v 0.00067919 0.00999211 0.00477667
v -0.01400754 0.00376351 0.01291397
v -0.00490161 0.00695228 -0.00489745
v -0.00914606 0.00109618 -0.00578783
v -0.01419174 -0.01187031 0.00604860
v 0.00204635 -0.00904494 -0.00025306
v -0.02546592 -0.00341797 0.01122280
v -0.01869728 0.00509900 0.01102442
v -0.02373020 -0.00234809 0.00778355
v 0.00332906 -0.00942965 0.00156520
v -0.01484940 -0.00018215 0.01836667
v -0.01285772 -0.00640376 0.01883361
v -0.02601355 -0.00267844 0.02388215
v -0.00241291 0.00997671 0.00004089
v 0.00129403 0.00995498 0.00570331
v -0.01883269 0.00515615 0.00680440
v 0.00451965 -0.00817288 0.00385658
v -0.01757815 -0.00698010 0.02263470
v -0.02467950 0.00036965 0.00909576
v -0.02749799 -0.00441441 0.02069167
v -0.01104739 -0.01162190 0.01492789
v -0.00070240 -0.00763289 -0.00392967
v -0.02377565 -0.00957069 0.02113164
v -0.00984668 -0.00451924 0.01670492
v 0.00309926 -0.00952534 0.00177144
v -0.00550999 0.00226662 -0.00758084
v -0.01636174 -0.00704316 0.00170881
v -0.02057539 -0.00539140 0.02488328
v -0.00481590 0.00789496 -0.00441372
v -0.01768501 -0.00958893 0.02161772
v -0.01004335 0.00623185 -0.00237539
v -0.00176942 -0.01136208 0.00508211
v -0.01058092 0.00045746 0.01502752
v -0.02682151 -0.00565027 0.01590921
v 0.00159195 0.00966078 0.00604899
v -0.01211935 -0.01305923 0.01051702
v -0.01902108 -0.01215395 0.01382851
v -0.02694426 -0.00198411 0.01336150
v -0.00016920 -0.00837934 -0.00339325
v -0.02467863 0.00304741 0.01182075
v -0.02499605 -0.00624472 0.01246451
v -0.00785166 -0.00599104 0.01615463
v -0.00351753 -0.00368890 -0.00676071
v 0.00537591 -0.00722669 0.00552035
v -0.02200585 0.00354871 0.01751995
v -0.01199109 -0.00913572 0.01791434
v -0.00592900 -0.00439496 -0.00528630
v -0.02400512 -0.00949572 0.01582244
v -0.02018047 -0.01050422 0.01022972
v -0.01924863 -0.00066079 0.02163791
f 70 36 54
f 54 36 42
f 66 48 70
f 70 48 36
f 57 35 48
f 48 35 36
f 57 26 35
f 35 26 24
f 74 42 35
f 35 42 36
f 42 74 52
f 52 74 15
f 52 8 42
f 42 8 54
f 57 48 14
f 14 48 66
f 70 45 66
f 66 45 1
f 45 70 21
f 21 70 54
f 57 14 26
f 26 14 16
f 8 47 54
f 54 47 21
f 60 45 61
f 61 45 21
f 47 72 21
f 21 72 61
f 29 60 73
f 73 60 61
f 60 29 56
f 56 29 5
f 72 4 61
f 61 4 73
f 45 60 1
f 1 60 56
f 47 8 44
f 44 8 37
f 8 52 37
f 37 52 15
f 24 26 32
f 32 26 16
f 69 24 11
f 11 24 32
f 32 16 40
f 40 16 13
f 11 32 64
f 64 32 40
f 11 9 69
f 69 9 18
f 15 18 37
f 37 18 9
f 74 35 69
f 69 35 24
f 15 74 18
f 18 74 69
f 29 51 5
f 5 51 71
f 5 49 56
f 55 12 13
f 13 12 40
f 12 55 19
f 19 55 28
f 43 12 33
f 33 12 19
f 71 51 28
f 28 51 19
f 51 23 19
f 19 23 33
f 12 43 40
f 40 43 64
f 22 64 62
f 62 64 43
f 58 62 65
f 65 62 31
f 62 43 31
f 31 43 33
f 62 58 22
f 22 58 44
f 22 44 9
f 9 44 37
f 9 11 22
f 22 11 64
f 51 29 23
f 23 29 73
f 65 23 4
f 4 23 73
f 65 31 23
f 23 31 33
f 58 65 72
f 72 65 4
f 72 47 58
f 58 47 44
f 13 16 39
f 14 66 6
f 66 1 17
f 16 14 59
f 1 56 7
f 56 49 41
f 5 71 46
f 71 28 50
f 49 5 63
f 28 55 53
f 55 13 38
f 39 25 13
f 6 10 14
f 17 6 66
f 59 39 16
f 7 68 1
f 41 7 56
f 46 63 5
f 50 2 71
f 63 30 49
f 53 27 28
f 38 3 55
f 49 34 41
f 13 25 38
f 14 10 20
f 1 68 17
f 14 20 59
f 49 30 34
f 71 67 46
f 71 2 67
f 28 27 50
f 55 3 53
f 2 50 27
f 27 53 3
f 3 38 25
f 25 39 59
f 59 20 10
f 10 6 17
f 17 68 7
f 7 41 34
f 34 30 63
f 63 46 67
f 67 2 27
f 27 3 25
f 25 59 10
f 10 17 7
f 7 34 63
f 63 67 27
f 27 25 10
f 10 7 63
f 63 27 10

