# https://github.com/mikedh/trimesh
v -0.01180675 0.01426985 0.00081734
v -0.03256833 0.00131694 0.01138287
v -0.00157695 -0.00835164 -0.00977008
v -0.03315196 0.01258775 -0.00354366
v -0.03217909 -0.00400531 -0.00363220
v -0.03321828 0.01317236 0.00268038
v 0.00423712 -0.00305984 0.01154058
v -0.03288244 0.00666191 0.01155374
v -0.03228595 -0.00322277 0.00821194
v -0.02981548 0.01352782 0.00191415
v 0.00380501 0.00496269 0.01161972
v -0.02929575 0.01281140 -0.00374668
v -0.00838814 0.00056811 -0.01379305
v -0.02938774 0.01156192 0.00804727
v -0.00246926 -0.00609804 0.00778490
v -0.00519819 -0.00464743 -0.01415124
v -0.03278208 0.00663086 -0.00757804
v -0.03312507 0.01106488 0.00856277
v -0.03214195 -0.00519529 0.00269714
v -0.03307116 0.01008125 0.00928833
v -0.00367209 0.01456332 0.00017833
v -0.00009064 -0.00967257 -0.00399252
v -0.02915429 0.00703189 0.01138937
v -0.02945634 -0.00454296 -0.00400170
v -0.00450392 -0.00786092 0.00183261
v -0.03291221 0.00873028 -0.00620049
v -0.03241297 0.00031397 -0.00736819
v -0.02865996 -0.00617293 0.00249185
v -0.00301120 0.01157419 -0.00764447
v -0.02861108 0.00160250 0.01153267
v 0.00383694 0.01195768 0.00734433
v -0.02849054 -0.00402497 0.00851347
f 22 31 7
f 14 31 21
f 10 4 6
f 6 14 10
f 21 31 29
f 16 29 3
f 31 22 3
f 3 29 31
f 1 14 21
f 1 10 14
f 21 29 12
f 12 29 4
f 12 1 21
f 4 10 12
f 10 1 12
f 13 29 16
f 16 27 13
f 15 22 7
f 7 32 15
f 22 15 25
f 28 3 22
f 22 25 28
f 28 9 19
f 32 9 28
f 28 15 32
f 28 25 15
f 5 28 19
f 5 27 16
f 18 14 6
f 31 14 18
f 2 32 7
f 2 9 32
f 7 31 11
f 17 13 27
f 29 13 17
f 3 28 24
f 28 5 24
f 16 3 24
f 24 5 16
f 31 18 20
f 8 2 30
f 30 2 7
f 7 11 30
f 30 11 8
f 23 11 31
f 8 11 23
f 23 20 8
f 31 20 23
f 4 29 26
f 29 17 26
f 19 9 26
f 6 4 26
f 26 5 19
f 26 2 8
f 26 18 6
f 9 2 26
f 27 5 26
f 8 20 26
f 26 17 27
f 26 20 18

