# https://github.com/mikedh/trimesh
v -0.01333983 -0.00631670 -0.00521673
v 0.00415788 -0.00119445 -0.00630542
v -0.01204947 -0.00490658 -0.01096217
v -0.00095950 -0.00470159 0.00178804
v -0.01159114 -0.00318300 -0.01230277
v -0.01768905 -0.00134309 -0.00993470
v -0.01223874 -0.00635977 -0.00825013
v -0.01493437 -0.00037719 -0.01257760
v -0.00015293 -0.00570143 -0.00303914
v -0.01568187 -0.00382223 -0.01048544
v -0.00599991 -0.00481611 -0.00925761
v -0.00823989 -0.00644155 -0.00214807
v -0.00722869 0.00301174 0.00294814
v -0.01570481 -0.00245134 -0.01182541
v -0.00325808 0.00462914 0.00469382
v -0.00674475 -0.00010850 -0.01107312
v -0.00027818 -0.00143420 -0.00845626
v -0.01510055 -0.00437110 -0.00332793
v -0.00207267 0.00726036 0.00223024
v -0.00244642 0.00286921 -0.00845685
v 0.00317036 0.00447601 -0.00516821
v 0.00386928 0.00325936 -0.00616016
v -0.01044877 -0.00423640 0.00026333
v -0.01144716 -0.00101809 -0.01269675
v -0.00445320 -0.00310205 0.00371957
v -0.00672392 -0.00654561 -0.00637874
v -0.01407623 0.00111182 -0.01185952
v -0.00193921 0.00715411 0.00249951
v -0.00345212 0.00630051 -0.00389024
v -0.01673074 -0.00224216 -0.00304430
v 0.00131737 0.00740087 -0.00251820
v 0.00071073 -0.00513745 -0.00074782
v -0.00630366 0.00001478 0.00403429
v -0.01724510 -0.00318663 -0.00897975
v -0.00263254 0.00583124 0.00365275
v 0.00359083 0.00325591 -0.00629785
v -0.00105030 0.00733903 0.00112202
v 0.00029371 -0.00396854 -0.00651772
v -0.01299009 0.00096005 -0.00047579
v -0.01198146 -0.00124947 0.00050116
v -0.00600384 -0.00258842 -0.01092692
v -0.01136955 0.00044390 -0.01193564
v -0.01819960 -0.00274448 -0.00631938
v 0.00141514 -0.00523531 -0.00182304
v 0.00369105 -0.00120615 -0.00655147
v -0.00296746 -0.00227677 0.00470949
v 0.00322006 -0.00370375 -0.00469734
v -0.01853218 -0.00043745 -0.00685004
v -0.01590049 0.00255811 -0.01027796
v -0.01709342 0.00154868 -0.01031538
v -0.01531165 -0.00500521 -0.00892240
v -0.01806091 0.00176933 -0.00653118
v -0.00440320 0.00348076 -0.00824290
v -0.01605376 -0.00470518 -0.00752893
v -0.01680124 -0.00386626 -0.00595813
v -0.00182011 0.00731421 0.00230588
v -0.00366842 0.00145370 0.00553641
v -0.00205041 -0.00523023 0.00095289
v -0.01688810 0.00248930 -0.00670219
v -0.01685222 0.00005247 -0.00353774
f 14 6 8
f 34 6 14
f 19 56 37
f 31 49 29
f 29 49 19
f 30 23 40
f 40 39 30
f 48 30 60
f 30 39 60
f 12 9 58
f 21 22 36
f 2 38 41
f 20 21 36
f 31 21 20
f 50 49 8
f 8 6 50
f 50 6 48
f 18 23 30
f 43 30 48
f 43 18 30
f 55 18 43
f 48 6 43
f 43 6 34
f 3 14 5
f 24 41 5
f 8 24 5
f 5 14 8
f 28 56 19
f 57 15 13
f 13 39 57
f 33 46 57
f 57 39 33
f 39 40 33
f 33 40 23
f 52 60 39
f 52 13 19
f 39 13 52
f 48 60 52
f 52 50 48
f 49 50 52
f 4 58 32
f 47 38 2
f 47 44 9
f 9 38 47
f 26 38 9
f 26 9 12
f 26 7 3
f 3 7 51
f 16 41 24
f 16 20 36
f 36 17 16
f 16 17 41
f 11 41 38
f 11 26 3
f 38 26 11
f 3 5 11
f 11 5 41
f 27 24 8
f 8 49 27
f 35 28 19
f 25 33 23
f 46 33 25
f 25 23 12
f 12 58 25
f 4 46 25
f 25 58 4
f 19 49 59
f 59 52 19
f 49 52 59
f 54 43 34
f 34 51 54
f 55 43 54
f 10 14 3
f 3 51 10
f 34 14 10
f 10 51 34
f 45 17 36
f 45 22 2
f 36 22 45
f 2 41 45
f 41 17 45
f 24 27 42
f 42 27 20
f 42 16 24
f 20 16 42
f 31 20 53
f 20 27 53
f 53 49 31
f 53 27 49
f 1 18 55
f 55 54 1
f 1 51 7
f 1 54 51
f 1 26 12
f 7 26 1
f 12 23 1
f 23 18 1
f 29 37 31
f 19 37 29
f 9 44 32
f 32 58 9
f 57 46 35
f 2 22 35
f 35 15 57
f 31 37 35
f 4 32 35
f 35 37 56
f 35 21 31
f 35 46 4
f 56 28 35
f 22 21 35
f 35 47 2
f 35 32 44
f 44 47 35
f 19 13 35
f 35 13 15

