# https://github.com/mikedh/trimesh
v -0.00312313 -0.00939590 0.01145194
v -0.02332396 -0.00880912 0.01296237
v -0.00333288 -0.00945295 -0.00131284
v 0.00645147 -0.00194029 0.00914310
v 0.00530726 -0.00732506 0.00537854
v -0.02246361 -0.00801693 0.02384623
v -0.02648533 0.00175300 0.01929351
v -0.02361300 0.00376236 0.01460171
v -0.01928402 0.00313898 0.00343042
v -0.00897997 0.00832251 0.00193955
v -0.02320332 -0.00143616 0.02415906
v 0.00644925 -0.00197754 0.00912578
v -0.02388160 0.00201389 0.02093384
v -0.01842367 -0.00117746 0.00109397
v 0.00493891 0.00462952 0.00928687
v -0.01832378 -0.01188685 0.01844617
v -0.02759097 0.00042701 0.01627940
v -0.02225593 -0.00711543 0.00815454
v 0.00067919 0.00999211 0.00477667
v -0.00914606 0.00109618 -0.00578783
v -0.01419174 -0.01187031 0.00604860
v 0.00204635 -0.00904494 -0.00025306
v -0.02546592 -0.00341797 0.01122280
v -0.02373020 -0.00234809 0.00778355
v 0.00332906 -0.00942965 0.00156520
v -0.02601355 -0.00267844 0.02388215
v -0.00241291 0.00997671 0.00004089
v 0.00129403 0.00995498 0.00570331
v -0.01883269 0.00515615 0.00680440
v 0.00451965 -0.00817288 0.00385658
v -0.01757815 -0.00698010 0.02263470
v -0.02467950 0.00036965 0.00909576
v -0.02749799 -0.00441441 0.02069167
v -0.01104739 -0.01162190 0.01492789
v -0.00070240 -0.00763289 -0.00392967
v -0.02377565 -0.00957069 0.02113164
v 0.00309926 -0.00952534 0.00177144
v -0.00550999 0.00226662 -0.00758084
v -0.01636174 -0.00704316 0.00170881
v -0.02057539 -0.00539140 0.02488328
v -0.00481590 0.00789496 -0.00441372
v -0.01768501 -0.00958893 0.02161772
v -0.01004335 0.00623185 -0.00237539
v -0.00176942 -0.01136208 0.00508211
v -0.02682151 -0.00565027 0.01590921
v 0.00159195 0.00966078 0.00604899
v -0.01211935 -0.01305923 0.01051702
v -0.01902108 -0.01215395 0.01382851
v -0.02694426 -0.00198411 0.01336150
v -0.00016920 -0.00837934 -0.00339325
v -0.02467863 0.00304741 0.01182075
v -0.02499605 -0.00624472 0.01246451
v -0.00351753 -0.00368890 -0.00676071
v 0.00537591 -0.00722669 0.00552035
v -0.02200585 0.00354871 0.01751995
v -0.01199109 -0.00913572 0.01791434
v -0.00592900 -0.00439496 -0.00528630
v -0.02400512 -0.00949572 0.01582244
v -0.02018047 -0.01050422 0.01022972
f 15 40 4
f 40 15 11
f 11 26 40
f 13 26 11
f 39 14 20
f 38 53 20
f 3 21 39
f 27 41 10
f 10 8 27
f 36 45 58
f 4 40 31
f 31 42 4
f 40 42 31
f 1 42 34
f 6 42 40
f 40 26 6
f 6 26 36
f 47 34 16
f 34 42 16
f 16 6 36
f 42 6 16
f 7 26 13
f 17 7 51
f 51 7 8
f 55 13 28
f 28 8 55
f 55 7 13
f 8 7 55
f 33 45 36
f 36 26 33
f 17 45 33
f 33 7 17
f 26 7 33
f 46 11 15
f 28 13 46
f 13 11 46
f 39 20 57
f 57 20 53
f 57 3 39
f 43 41 38
f 38 20 43
f 10 41 43
f 19 8 28
f 19 27 8
f 49 45 17
f 18 14 39
f 18 24 14
f 42 1 56
f 44 1 34
f 44 34 47
f 47 21 44
f 21 3 44
f 44 22 25
f 50 22 44
f 44 3 50
f 36 58 48
f 48 16 36
f 48 21 47
f 47 16 48
f 35 57 53
f 9 20 14
f 9 43 20
f 24 49 32
f 51 9 32
f 17 51 32
f 32 49 17
f 14 24 32
f 32 9 14
f 52 58 45
f 1 54 12
f 12 56 1
f 4 42 12
f 42 56 12
f 59 48 58
f 21 48 59
f 39 21 59
f 59 18 39
f 29 9 51
f 29 8 10
f 29 51 8
f 10 43 29
f 43 9 29
f 58 52 2
f 2 52 18
f 2 59 58
f 18 59 2
f 24 18 23
f 18 52 23
f 23 49 24
f 45 49 23
f 23 52 45
f 25 30 37
f 37 44 25
f 50 3 35
f 3 57 35
f 5 53 38
f 38 41 5
f 5 15 4
f 5 22 50
f 50 35 5
f 5 19 28
f 28 46 5
f 41 27 5
f 5 46 15
f 25 22 5
f 27 19 5
f 4 12 5
f 5 35 53
f 5 12 54
f 5 30 25
f 5 54 1
f 1 44 5
f 44 37 5
f 5 37 30

