# https://github.com/mikedh/trimesh
v -0.00307193 -0.01275789 -0.00679315
v 0.00899083 -0.00802305 0.01479324
v -0.00954869 -0.00322953 -0.01902834
v -0.02892776 -0.00956389 0.00557069
v -0.01353179 0.00059782 0.03292326
v -0.02917846 -0.00342435 0.00748377
v 0.02477873 -0.00373185 -0.00068948
v -0.01481672 0.00548692 0.03278651
v 0.00087877 -0.01376367 0.00818489
v 0.01117768 0.00265692 0.01898436
v -0.00461741 -0.00821425 0.02358522
v -0.02798507 0.00748375 0.01338967
v -0.01765532 -0.01230765 0.02178795
v -0.02618766 0.01336450 0.01833897
v -0.01260942 -0.00873816 0.02815948
v 0.01965939 0.01702703 0.01072145
v -0.01394824 -0.00868641 0.02881329
v 0.01078145 -0.01197138 -0.00416459
v -0.03149692 -0.00683359 -0.00077203
v -0.02681721 -0.01105473 0.00824154
v -0.01166456 0.00642176 0.03089536
v -0.01043300 -0.00126563 0.03154333
v -0.00974434 -0.01361905 0.01710852
v -0.01325409 0.01434312 0.02570921
v -0.00247391 0.00040203 0.02689551
v 0.02077089 0.00440354 0.01318049
v -0.01943133 0.01612009 0.02111929
v -0.01851478 0.01181999 0.02949853
v -0.01903442 -0.01356641 0.01189579
v 0.00234416 -0.00826914 -0.01751661
v -0.02573885 -0.01160130 0.00968668
v -0.01370674 -0.00755627 0.02960547
v -0.00546862 0.01760928 0.01934150
v -0.02045723 0.01309986 0.02700590
v -0.01300753 -0.00180512 0.03282635
v -0.01138449 -0.01516916 0.00448847
v -0.01525008 -0.00782797 -0.00851149
v 0.01752056 -0.00687561 0.00713727
f 14 3 19
f 16 3 33
f 16 26 7
f 7 18 30
f 30 16 7
f 3 16 30
f 33 3 27
f 3 14 27
f 7 26 38
f 26 2 38
f 38 18 7
f 9 2 23
f 23 36 9
f 9 36 18
f 18 38 9
f 9 38 2
f 12 14 19
f 19 6 12
f 1 30 18
f 18 36 1
f 1 36 19
f 23 13 29
f 29 36 23
f 13 31 29
f 31 36 29
f 20 36 31
f 34 27 14
f 26 16 21
f 10 2 26
f 10 22 2
f 26 21 10
f 17 13 23
f 37 1 19
f 30 1 37
f 19 3 37
f 3 30 37
f 4 6 19
f 19 36 4
f 36 20 4
f 24 34 28
f 24 16 33
f 33 27 24
f 27 34 24
f 24 21 16
f 28 8 24
f 8 21 24
f 22 10 25
f 25 10 21
f 25 8 5
f 5 22 25
f 25 21 8
f 35 22 5
f 23 2 15
f 15 17 23
f 17 15 32
f 2 22 11
f 11 15 2
f 35 32 11
f 22 35 11
f 11 32 15
f 32 31 13
f 32 34 14
f 6 4 32
f 5 8 32
f 14 12 32
f 32 8 28
f 32 12 6
f 32 20 31
f 28 34 32
f 13 17 32
f 32 4 20
f 32 35 5

