# https://github.com/mikedh/trimesh
v -0.00240096 0.00846658 -0.00565922
v -0.00147924 0.00691813 0.00648820
v -0.00605137 0.00115041 0.00945909
v 0.00011058 -0.00269242 0.00916580
v -0.01638859 -0.00759730 0.00370648
v -0.00047306 0.00857840 -0.00576072
v 0.00049982 -0.00801467 -0.00584927
v -0.00053937 0.00916300 0.00046331
v -0.00141991 0.00253185 0.00939030
v -0.00625826 0.00561946 0.00701237
v -0.02233492 0.00240661 -0.00751465
v -0.02211470 -0.00127864 -0.00834100
v -0.02222473 -0.00084761 0.00811689
v -0.00197000 0.00276109 -0.00959592
v -0.00020354 0.00265256 0.00933667
v 0.00039295 -0.00723212 0.00599487
v -0.02247552 0.00357467 0.00649209
v -0.02248566 0.00375497 0.00640830
v -0.02251374 0.00520282 -0.00461321
v -0.02225005 -0.00042524 0.00822737
v -0.02181473 -0.00744152 0.00354167
v -0.00537697 -0.00343135 0.00916379
v -0.02199903 -0.00461039 0.00711030
v -0.00221273 0.00898820 0.00084010
v -0.00010318 0.00262151 -0.00979511
v -0.00044617 0.00705552 0.00634570
v -0.02180419 -0.00675384 -0.00633044
v 0.00053696 -0.00920465 0.00048007
v -0.00509759 -0.00699341 0.00604224
v -0.02261307 0.00640332 0.00101369
v -0.00039226 0.00607189 0.00707127
v -0.02172981 -0.00837124 -0.00236828
v -0.00023331 0.00472092 -0.00841756
v 0.00026593 -0.00369538 -0.00958526
v -0.01646355 0.00725152 0.00125742
v -0.02229736 0.00178115 -0.00769113
v -0.02242792 0.00386197 -0.00601939
f 6 1 8
f 30 1 19
f 14 11 1
f 25 12 14
f 34 7 27
f 27 12 34
f 34 12 25
f 35 1 30
f 9 2 10
f 1 11 37
f 37 19 1
f 25 14 33
f 11 14 36
f 36 14 12
f 24 35 2
f 24 26 8
f 2 26 24
f 8 1 24
f 1 35 24
f 18 10 2
f 9 10 18
f 18 35 30
f 2 35 18
f 31 26 2
f 28 21 32
f 32 7 28
f 27 7 32
f 23 21 29
f 28 16 5
f 5 21 28
f 5 29 21
f 16 29 5
f 4 15 9
f 3 4 9
f 20 3 17
f 9 18 17
f 17 3 9
f 4 3 22
f 22 3 20
f 20 13 22
f 22 13 23
f 16 4 22
f 22 29 16
f 23 29 22
f 1 6 33
f 33 14 1
f 31 2 9
f 9 15 31
f 8 26 4
f 28 7 4
f 4 6 8
f 4 34 25
f 4 16 28
f 7 34 4
f 25 33 4
f 4 31 15
f 4 33 6
f 26 31 4
f 11 36 17
f 17 12 27
f 30 19 17
f 17 37 11
f 17 18 30
f 17 21 23
f 19 37 17
f 17 36 12
f 27 32 17
f 17 32 21
f 23 13 17
f 17 13 20

