# https://github.com/mikedh/trimesh
v -0.07355606 -0.01619082 -0.04406242
v -0.07029407 -0.01648510 -0.04754412
v -0.09714174 -0.00928310 -0.00964900
v -0.08820552 -0.00949902 -0.02339946
v -0.09458326 -0.01248719 0.01696775
v -0.09260117 -0.01306127 0.02251860
v -0.09056650 -0.01129840 0.02847089
v -0.09704933 -0.00181926 0.01154348
v -0.09175582 -0.00544977 0.03180515
v -0.08818789 -0.01487293 0.01669346
v -0.10029419 0.00903481 0.00138532
v -0.09967566 0.01195713 -0.00583144
v -0.08280616 0.00853128 -0.02772131
v -0.09196852 0.00103012 0.03118561
v -0.09176934 0.00936296 0.02086432
v -0.09240337 0.00669316 0.02711921
v -0.08156869 0.01110778 0.02077064
v -0.05804886 -0.01990213 -0.04134237
v -0.06172769 -0.02030284 -0.03599545
v -0.05243402 -0.02036460 -0.04041351
v -0.05451569 -0.02132514 -0.03552428
v -0.04291038 -0.02023999 -0.03862589
v -0.03437026 -0.02046896 -0.03659155
v -0.04470965 -0.02214755 -0.03344738
v -0.03457777 -0.02282116 -0.03113960
v -0.06151716 -0.01477518 -0.04781277
v -0.06190564 -0.01136947 -0.04981726
v -0.05616261 -0.01578815 -0.04641322
v -0.04996428 -0.01548331 -0.04503438
v -0.02718308 -0.01339235 -0.04040170
v -0.01346812 -0.02397229 -0.01288900
v -0.02399240 -0.02310820 -0.02940051
v -0.01781066 -0.02271627 -0.02763730
v -0.00868267 -0.02153744 -0.02427411
v -0.00389956 -0.02293587 -0.00651951
v 0.00119831 -0.01973732 -0.02032203
v -0.01652178 -0.01284585 -0.03648469
v 0.00364312 -0.01111814 -0.02662453
v 0.01799029 -0.01372179 -0.00613466
v 0.01701476 -0.01446898 0.00364074
v 0.01836056 -0.01159008 -0.01484151
v 0.01791611 -0.00752128 -0.02057771
v 0.01694733 -0.00131996 -0.02521304
v -0.05158463 -0.02660891 0.03492090
v -0.04312412 -0.02908874 0.03770864
v -0.03547419 -0.03069150 0.03030132
v -0.04212642 -0.02776676 0.04782639
v -0.04174502 -0.02782998 0.04760079
v -0.03669912 -0.02426050 0.05397233
v -0.03803795 -0.02420874 0.05462614
v -0.03383404 -0.02914139 0.04292137
v -0.02870712 -0.02373659 0.04939807
v -0.03709724 -0.01732745 0.05863920
v -0.03452271 -0.01678796 0.05735617
v -0.04215253 -0.01838679 0.06115852
v -0.05045076 -0.00344148 0.05388153
v -0.04349081 -0.01139502 0.06134979
v -0.04633992 -0.00549394 0.05800203
v -0.01330826 -0.02749371 0.02164826
v -0.02321093 -0.02928601 0.03399774
v -0.01509888 -0.02354538 0.04060609
v -0.00656915 -0.02239795 0.03295011
v 0.01659975 -0.01273397 0.01243563
v 0.01514622 -0.00937070 0.02020927
v -0.00331882 -0.01111880 0.03899334
v 0.01119541 -0.00433184 0.02940115
v -0.01291203 -0.01286541 0.04479721
v -0.06735451 0.00004593 -0.04807560
v 0.01569566 0.00786028 -0.02862045
v 0.01366626 0.01946093 -0.02629636
v 0.01096384 0.02670149 -0.01537559
v 0.00944901 0.02816419 -0.00632051
v -0.04879501 0.00704404 0.03572979
v 0.01031418 0.00712862 0.03102221
v 0.00774474 0.01623109 0.02693152
v 0.00683595 0.02320195 0.01887146
v 0.00755803 0.02667750 0.00690883
f 11 16 15
f 41 70 63
f 76 74 72
f 11 15 12
f 72 74 71
f 71 12 72
f 13 12 71
f 68 13 71
f 71 70 68
f 41 63 39
f 57 74 75
f 74 76 75
f 77 76 72
f 72 12 77
f 11 12 3
f 3 5 11
f 68 70 27
f 67 65 74
f 74 65 66
f 40 39 63
f 73 76 16
f 16 56 73
f 73 56 76
f 57 75 58
f 58 56 16
f 76 56 58
f 58 75 76
f 76 77 17
f 17 15 16
f 16 76 17
f 17 12 15
f 17 77 12
f 68 27 2
f 14 16 11
f 11 9 14
f 14 58 16
f 14 9 57
f 57 58 14
f 11 5 8
f 8 9 11
f 5 9 8
f 74 66 64
f 64 71 74
f 64 63 70
f 70 71 64
f 46 45 19
f 39 40 35
f 35 40 59
f 4 3 12
f 26 2 27
f 36 42 41
f 41 39 36
f 39 35 36
f 30 27 69
f 69 27 70
f 69 42 43
f 69 70 41
f 41 42 69
f 6 9 5
f 6 7 9
f 5 10 6
f 1 10 5
f 5 3 1
f 1 2 19
f 19 10 1
f 3 4 1
f 1 4 12
f 1 12 13
f 1 13 68
f 68 2 1
f 31 35 59
f 59 46 31
f 21 46 19
f 21 24 46
f 30 33 23
f 34 36 35
f 34 31 33
f 35 31 34
f 36 34 37
f 30 69 37
f 37 69 43
f 37 33 30
f 37 34 33
f 7 6 47
f 57 9 55
f 9 7 55
f 55 53 57
f 7 47 55
f 62 66 65
f 62 64 66
f 63 64 62
f 59 40 62
f 62 40 63
f 32 23 33
f 33 31 32
f 32 31 46
f 2 26 28
f 28 26 27
f 42 36 38
f 36 37 38
f 43 42 38
f 38 37 43
f 45 47 44
f 44 47 6
f 44 6 10
f 19 45 44
f 44 10 19
f 45 46 51
f 57 53 54
f 54 74 57
f 54 67 74
f 50 55 47
f 47 51 50
f 19 2 18
f 18 21 19
f 30 23 29
f 23 28 29
f 29 27 30
f 29 28 27
f 48 47 45
f 45 51 48
f 48 51 47
f 60 46 59
f 60 51 46
f 59 62 60
f 52 54 53
f 53 55 52
f 46 24 25
f 25 32 46
f 23 32 20
f 2 28 20
f 20 18 2
f 32 25 20
f 20 25 24
f 24 21 20
f 21 18 20
f 67 54 61
f 54 52 61
f 65 67 61
f 61 62 65
f 61 60 62
f 51 60 61
f 49 50 51
f 51 61 49
f 49 61 52
f 55 50 49
f 49 52 55
f 22 28 23
f 23 20 22
f 22 20 28

