# https://github.com/mikedh/trimesh
v -0.02320248 0.00380721 -0.00824681
v 0.00090002 0.00418046 -0.00655316
v -0.00156525 0.00495673 0.00751557
v -0.02489197 -0.00135466 -0.00588514
v -0.01870700 -0.00012716 -0.01088623
v -0.00007015 -0.00653063 0.00248036
v -0.01177698 -0.00045421 -0.00984444
v -0.02092895 0.00173264 0.00387370
v -0.02272345 -0.00380751 -0.00620038
v -0.02522456 0.00173963 0.00028213
v -0.00156225 0.00378887 0.00786884
v -0.01859644 0.00382426 -0.00854974
v -0.02317115 -0.00008846 -0.00978431
v -0.00614447 0.00026380 0.00799582
v -0.02413614 -0.00287056 -0.00279106
v -0.00379688 -0.00694399 0.00273797
v -0.02110759 -0.00388970 0.00115347
v -0.02131999 -0.00143845 0.00322326
v 0.00137445 -0.00047191 -0.00783124
v -0.00958490 0.00514380 0.00581834
v -0.01850647 0.00545021 -0.00691708
v -0.00076303 0.00812916 0.00185026
v -0.02591500 0.00063296 -0.00533060
v -0.01263372 -0.00415552 -0.00873427
v -0.00625413 0.00766869 0.00091387
v -0.02569215 0.00384685 -0.00413625
v 0.00075013 -0.00692664 -0.00215706
v -0.00143099 -0.00062056 0.00850633
v -0.01753337 -0.00300604 -0.00966956
v -0.02433785 0.00499420 -0.00347728
v 0.00136202 -0.00158729 -0.00740498
v -0.00941298 0.00657822 -0.00377713
v -0.02377201 0.00392324 0.00037078
v -0.01112551 0.00586112 0.00379617
v 0.00032281 0.00681942 -0.00403914
v -0.02253023 -0.00451633 -0.00357071
v 0.00094759 0.00395282 -0.00675711
v -0.00021462 -0.00643460 0.00328876
v -0.01523668 0.00255857 0.00524169
v -0.00083663 -0.00455482 0.00630392
v -0.02044616 -0.00596026 -0.00244854
v -0.01900482 -0.00592549 -0.00617685
v -0.01907392 0.00187869 -0.00994324
v -0.02301374 0.00499628 -0.00692730
v -0.00456888 -0.00045539 -0.00877972
v -0.00143793 -0.00056059 0.00852761
v -0.00251823 -0.00740219 -0.00263094
v -0.00495278 -0.00426382 0.00650888
v -0.01217964 0.00227351 -0.00922304
v -0.01533349 -0.00407441 0.00357496
v 0.00005212 0.00716035 -0.00257557
v -0.01522596 -0.00047973 0.00566871
v -0.00223393 -0.00504895 -0.00669087
v -0.02069153 0.00401971 0.00219341
v 0.00128096 -0.00495159 -0.00586636
v -0.00540571 0.00299940 -0.00804146
v -0.02538898 -0.00082981 -0.00139668
v -0.00096397 -0.00407942 0.00689242
v -0.01493639 -0.00690642 -0.00012571
v -0.02353030 0.00223432 -0.00910599
v -0.01367172 -0.00695826 -0.00506031
v -0.02037631 0.00623807 -0.00244580
v -0.02135678 -0.00251042 -0.00932474
f 44 62 21
f 32 35 21
f 21 62 32
f 20 3 22
f 54 62 33
f 1 44 21
f 61 53 47
f 27 47 55
f 55 47 53
f 51 32 22
f 35 32 51
f 34 20 22
f 34 62 54
f 54 20 34
f 54 33 8
f 8 33 10
f 8 20 54
f 52 48 14
f 14 8 52
f 62 44 30
f 30 33 62
f 45 7 5
f 24 53 61
f 29 5 24
f 5 7 24
f 7 45 24
f 61 42 24
f 24 42 29
f 19 53 24
f 24 45 19
f 21 35 12
f 12 1 21
f 13 4 23
f 9 4 13
f 6 47 27
f 6 38 16
f 16 47 6
f 31 53 19
f 31 55 53
f 25 34 22
f 62 34 25
f 22 32 25
f 25 32 62
f 11 14 46
f 39 14 20
f 20 8 39
f 8 14 39
f 44 1 26
f 26 30 44
f 23 10 26
f 10 33 26
f 33 30 26
f 52 8 18
f 18 8 10
f 57 10 23
f 23 4 57
f 57 18 10
f 17 18 57
f 16 48 59
f 61 47 59
f 59 47 16
f 56 37 19
f 19 45 56
f 56 45 5
f 2 12 35
f 37 12 2
f 5 13 60
f 60 13 23
f 23 26 60
f 60 26 1
f 63 42 9
f 9 13 63
f 29 42 63
f 63 5 29
f 63 13 5
f 48 58 28
f 16 38 40
f 40 48 16
f 40 58 48
f 50 18 17
f 50 59 48
f 17 59 50
f 50 48 52
f 52 18 50
f 15 4 9
f 15 57 4
f 17 57 15
f 41 42 61
f 61 59 41
f 41 59 17
f 17 15 41
f 9 42 41
f 49 56 5
f 49 12 37
f 37 56 49
f 36 15 9
f 9 41 36
f 36 41 15
f 43 49 5
f 12 49 43
f 1 12 43
f 5 60 43
f 43 60 1
f 3 20 11
f 20 14 11
f 46 14 28
f 28 14 48
f 22 3 40
f 40 31 19
f 19 37 40
f 40 6 27
f 40 2 35
f 40 11 46
f 40 51 22
f 27 55 40
f 35 51 40
f 38 6 40
f 55 31 40
f 46 28 40
f 3 11 40
f 37 2 40
f 40 28 58

