# https://github.com/mikedh/trimesh
v 0.00511665 -0.01034153 0.00048748
v -0.02382412 0.00248741 -0.01503431
v -0.02987338 -0.00530260 -0.01092316
v -0.02521158 -0.00764571 -0.00359468
v -0.00248130 -0.00780414 -0.00629146
v 0.01099971 0.01014931 0.01133683
v -0.03263031 0.00945827 0.00040003
v -0.02650163 0.01085298 0.00115055
v -0.00238889 -0.00034029 0.01490102
v 0.00113112 -0.00446314 -0.01041328
v -0.02957346 0.00426502 -0.01570171
v 0.00609247 0.01421236 -0.00014237
v -0.00501522 0.01343609 -0.00247390
v -0.03173136 -0.00410212 -0.00051548
v -0.03237384 0.01025045 -0.00134072
v -0.02946564 -0.00132074 -0.01455475
v -0.03164415 -0.00449638 -0.00089673
v -0.02957294 0.00425196 -0.01570060
v -0.03284966 0.00499562 0.00309031
v -0.02391265 -0.00386581 -0.01324110
v -0.00476889 0.01017309 -0.00959131
v -0.02402263 0.00909194 -0.01323362
v -0.02946514 -0.00131118 -0.01456067
v 0.00136500 -0.00836882 0.00989229
v -0.02436551 -0.00729747 -0.00902955
v -0.02603953 -0.00600557 0.00111662
v -0.03034537 0.00942382 -0.01285706
v -0.02493096 0.01223985 -0.00581615
v 0.00414296 -0.00313824 -0.01134298
v -0.02990228 -0.00534614 -0.01074152
v -0.02959762 0.00943694 -0.01295870
v 0.00558706 0.01003670 -0.00802990
v 0.00355200 0.00785280 0.01639906
v -0.03066751 -0.00552239 -0.00624209
v -0.03243646 -0.00046904 0.00242562
v -0.03237756 -0.00106006 0.00227120
v -0.03175024 0.01158078 -0.00538405
v -0.03285872 0.00392371 0.00348317
v -0.02955886 0.00426426 -0.01570137
v 0.00276382 0.00342821 -0.01106691
v -0.03085151 -0.00535662 -0.00522630
f 6 1 29
f 24 1 6
f 37 8 12
f 40 29 2
f 33 24 6
f 9 24 33
f 6 12 33
f 33 12 8
f 38 9 33
f 26 24 9
f 7 33 8
f 6 29 32
f 32 12 6
f 32 29 40
f 40 2 39
f 1 24 4
f 24 26 4
f 17 4 26
f 15 8 37
f 15 7 8
f 38 33 19
f 33 7 19
f 12 32 21
f 21 31 12
f 23 2 29
f 10 29 1
f 1 5 10
f 30 4 34
f 1 4 25
f 25 5 1
f 25 30 3
f 4 30 25
f 25 10 5
f 34 4 41
f 4 17 41
f 36 26 9
f 27 31 11
f 22 39 11
f 11 31 22
f 31 21 22
f 40 39 22
f 22 32 40
f 22 21 32
f 37 12 28
f 28 27 37
f 31 27 28
f 11 39 18
f 18 39 2
f 2 23 18
f 20 25 3
f 10 25 20
f 20 23 29
f 29 10 20
f 35 9 38
f 35 36 9
f 14 17 26
f 26 36 14
f 12 31 13
f 13 28 12
f 31 28 13
f 16 20 3
f 23 20 16
f 11 18 16
f 38 19 16
f 16 15 37
f 34 41 16
f 16 27 11
f 16 30 34
f 7 15 16
f 16 19 7
f 17 14 16
f 3 30 16
f 16 41 17
f 16 35 38
f 37 27 16
f 16 18 23
f 36 35 16
f 16 14 36

