# https://github.com/mikedh/trimesh
v -0.02106138 0.00317794 -0.01050134
v -0.00257557 -0.00672032 0.00017812
v -0.02436372 0.00030858 -0.00194878
v -0.02130961 0.00070403 0.00116832
v -0.02459149 -0.00037805 -0.00745003
v -0.01945868 -0.00476557 -0.00849463
v -0.00036102 0.00738247 -0.00052019
v -0.01725188 0.00318258 -0.01045377
v -0.00912387 0.00573681 0.00184069
v -0.00430577 -0.00470005 0.00410925
v -0.02458344 0.00395445 -0.00256660
v -0.01655006 -0.00372756 -0.01111286
v -0.00193221 0.00585203 0.00465923
v 0.00239678 -0.00033789 -0.00730998
v -0.00234689 0.00221249 0.00674173
v -0.01505978 -0.00243238 0.00245685
v -0.01683130 -0.00127646 -0.01240522
v -0.02155705 -0.00410821 -0.00290085
v -0.02310841 -0.00254827 -0.00222720
v -0.00126391 -0.00461821 0.00491549
v 0.00165458 -0.00578380 -0.00381891
v 0.00243538 -0.00242904 -0.00696648
v -0.00199593 -0.00196458 0.00658410
v 0.00024668 -0.00659192 0.00069767
v -0.01606818 -0.00520101 -0.00871712
v 0.00233572 0.00154457 -0.00753812
v -0.01030809 -0.00060432 -0.01093168
v -0.01742745 0.00143829 -0.01211374
v -0.01057943 0.00587591 0.00039626
v -0.01413267 -0.00512762 0.00085844
v -0.00389008 0.00050968 -0.00942912
v -0.02325134 -0.00316385 -0.00658944
v -0.02146698 0.00231405 -0.01129790
v -0.00197511 0.00549940 0.00486938
v -0.00653444 -0.00138583 0.00559790
v 0.00146557 0.00518843 -0.00566291
v -0.02029185 -0.00228674 0.00052619
v -0.01105534 0.00207884 -0.01050775
v -0.01983359 0.00608880 -0.00644275
v -0.01890160 -0.00474817 -0.00112303
v -0.00584279 0.00507640 -0.00757969
v 0.00044456 0.00126868 -0.00814134
v -0.00151127 -0.00613062 -0.00436824
v -0.01184594 -0.00603124 -0.00729319
v -0.00126541 -0.00461623 0.00491965
v -0.02126412 -0.00050170 -0.01147048
v -0.02145349 -0.00486026 -0.00577323
v -0.00443970 -0.00295843 -0.00878848
v -0.01788474 -0.00657630 -0.00450758
v -0.00232503 0.00181965 0.00676126
v -0.02043448 -0.00301320 -0.01007211
v -0.00214836 -0.00118897 0.00688223
v -0.01312819 -0.00701508 -0.00307862
v -0.02443569 0.00385892 -0.00734048
v -0.00833069 0.00235828 0.00514311
v -0.00015402 -0.00251088 -0.00771777
f 55 13 11
f 7 36 41
f 41 39 7
f 36 26 41
f 9 13 7
f 11 13 9
f 9 39 11
f 28 17 33
f 53 43 2
f 2 43 24
f 2 45 10
f 12 17 48
f 24 43 21
f 21 48 22
f 43 48 21
f 6 49 47
f 6 51 12
f 47 32 6
f 32 51 6
f 12 48 44
f 44 48 43
f 44 43 53
f 53 49 44
f 28 41 38
f 38 41 26
f 7 39 29
f 29 9 7
f 39 9 29
f 5 11 54
f 54 33 5
f 11 39 54
f 39 41 8
f 8 41 28
f 10 45 23
f 20 2 24
f 45 2 20
f 4 55 11
f 3 11 5
f 3 4 11
f 31 17 28
f 28 38 31
f 46 33 17
f 46 17 12
f 12 51 46
f 5 33 46
f 46 32 5
f 46 51 32
f 25 6 12
f 12 44 25
f 49 6 25
f 25 44 49
f 50 55 52
f 50 15 55
f 13 55 34
f 55 15 34
f 39 8 1
f 1 54 39
f 33 54 1
f 28 33 1
f 1 8 28
f 16 4 37
f 10 23 16
f 19 40 37
f 37 4 19
f 4 3 19
f 19 32 47
f 5 32 19
f 19 3 5
f 22 31 14
f 22 48 56
f 56 31 22
f 27 48 17
f 17 31 27
f 27 56 48
f 31 56 27
f 35 23 52
f 35 16 23
f 4 16 35
f 52 55 35
f 55 4 35
f 10 16 30
f 37 40 30
f 30 16 37
f 53 2 30
f 30 2 10
f 30 49 53
f 30 40 49
f 18 19 47
f 40 19 18
f 47 49 18
f 49 40 18
f 26 14 42
f 42 14 31
f 42 38 26
f 42 31 38
f 7 13 14
f 14 20 24
f 13 34 14
f 14 36 7
f 14 21 22
f 14 26 36
f 52 23 14
f 24 21 14
f 14 50 52
f 14 23 45
f 45 20 14
f 15 50 14
f 14 34 15

