# https://github.com/mikedh/trimesh
v -0.01341925 0.00753306 -0.00674786
v -0.00197600 0.00812890 -0.00581938
v 0.00354343 -0.00538094 -0.00508176
v -0.01170903 -0.00188560 -0.01663733
v -0.00813527 0.00261611 -0.01458225
v -0.00298198 -0.00285743 0.00477063
v -0.01894101 0.00401292 -0.00555721
v -0.01682641 -0.00539275 -0.00854386
v 0.00434738 -0.00319165 -0.00646285
v 0.00480588 -0.00181475 -0.00725908
v -0.01912498 0.00393799 -0.00563809
v -0.01601201 0.00503468 -0.00421256
v -0.00338862 0.00414425 0.00492674
v -0.01376673 0.00689031 -0.01262492
v -0.01917085 0.00096156 -0.00458774
v -0.01269654 0.00378486 -0.01550011
v 0.00190317 0.00801937 -0.00345918
v -0.01199762 0.00256820 -0.01649207
v -0.01780611 0.00646296 -0.00783240
v -0.00237954 -0.00369467 0.00390146
v -0.00104823 0.00882435 0.00101948
v 0.00448396 0.00378820 -0.00713952
v -0.00353643 -0.00009520 0.00543733
v -0.01454953 0.00670971 -0.01285011
v -0.00300387 0.00607713 0.00420657
v -0.01515617 -0.00582861 -0.01107972
v -0.00264029 -0.00562027 -0.00793772
v 0.00386215 0.00493585 -0.00626136
v -0.01849944 0.00514009 -0.00667916
v -0.01691721 0.00664788 -0.00920988
v -0.00836165 -0.00180169 -0.01487307
v -0.00028740 -0.00204453 -0.01023469
v -0.01445176 -0.00592646 -0.01215494
v 0.00116173 -0.00557766 -0.00623700
v -0.00040237 -0.00599064 0.00101868
v -0.01883436 -0.00296792 -0.00562242
v -0.01264684 -0.00439491 -0.01502925
v -0.00103202 -0.00551854 0.00195406
v 0.00473072 0.00020090 -0.00727849
v -0.00386572 0.00163087 0.00582756
v -0.00972035 0.00732305 -0.01107426
v -0.00489731 0.00858960 -0.00169904
v -0.01768701 0.00662306 -0.00802602
v -0.01953532 0.00076254 -0.00479550
v 0.00119304 -0.00669721 -0.00138417
v -0.00026610 0.00369553 -0.00985249
v 0.00220431 -0.00632060 -0.00296238
f 19 25 21
f 21 43 19
f 36 40 44
f 11 13 25
f 40 13 11
f 40 36 23
f 23 36 6
f 45 33 47
f 47 33 27
f 5 4 18
f 27 33 37
f 42 43 21
f 42 1 43
f 21 2 42
f 17 2 21
f 28 2 17
f 25 19 12
f 15 11 44
f 44 40 15
f 40 11 15
f 6 36 20
f 36 38 20
f 8 38 36
f 39 5 22
f 4 5 31
f 5 39 31
f 31 37 4
f 28 22 46
f 22 5 46
f 46 5 18
f 27 37 34
f 3 47 34
f 34 47 27
f 41 42 2
f 1 42 41
f 41 2 28
f 28 46 41
f 18 16 41
f 41 46 18
f 7 11 25
f 25 12 7
f 35 8 45
f 38 8 35
f 26 33 45
f 45 8 26
f 37 31 32
f 3 34 32
f 32 34 37
f 32 9 3
f 10 9 32
f 32 31 39
f 32 39 10
f 1 41 14
f 24 30 14
f 14 16 24
f 14 41 16
f 11 7 29
f 6 20 35
f 21 25 35
f 35 13 40
f 45 47 35
f 35 9 10
f 40 23 35
f 25 13 35
f 35 22 28
f 10 39 35
f 35 23 6
f 35 17 21
f 35 47 3
f 3 9 35
f 28 17 35
f 35 20 38
f 35 39 22
f 14 30 43
f 43 1 14
f 43 30 29
f 18 4 29
f 4 37 29
f 29 19 43
f 29 36 44
f 44 11 29
f 33 26 29
f 29 16 18
f 29 37 33
f 29 30 24
f 24 16 29
f 29 8 36
f 29 26 8
f 29 12 19
f 29 7 12

