# https://github.com/mikedh/trimesh
v -0.00314565 0.00546563 -0.00887899
v -0.00637116 0.00773985 0.00199136
v -0.02388153 0.00569436 -0.00815400
v -0.00189879 0.00786076 0.00411207
v 0.00175699 -0.00795990 -0.00365323
v -0.01925028 -0.00754590 -0.01100308
v -0.00588450 0.00842352 -0.00355723
v 0.00309857 -0.00074377 -0.00938251
v -0.01887896 0.00694348 -0.00653066
v 0.00264046 -0.00594557 -0.00682072
v -0.00411782 0.00442295 0.00655434
v -0.00201852 -0.00028166 -0.01067254
v -0.02545272 0.00416392 -0.00297458
v -0.02112374 -0.00202600 -0.01494379
v -0.02586740 0.00052438 -0.00089208
v -0.02478443 -0.00630632 -0.00271832
v -0.02186594 -0.00747191 -0.01145272
v -0.02108514 -0.00411715 -0.01460030
v 0.00163491 -0.00817392 -0.00322977
v -0.02551645 -0.00365269 -0.00104971
v -0.00260696 0.00463457 0.00700743
v -0.00178008 0.00838374 0.00363064
v -0.02327384 -0.00828003 -0.00693614
v -0.02118480 -0.00014354 -0.01517194
v -0.01795396 0.00441823 -0.01191172
v -0.02239551 -0.00622621 -0.00127429
v -0.02549562 0.00381129 -0.00276444
v -0.02205494 0.00350032 -0.01329672
v 0.00206572 0.00562500 -0.00760856
v -0.00175888 -0.00513092 0.00655390
v -0.02478592 -0.00630434 -0.00271416
v -0.00003840 0.00909493 -0.00189290
v 0.00212748 0.00525678 -0.00771744
v -0.00171501 0.00841774 0.00342264
v -0.02584555 0.00013154 -0.00087255
v -0.00254441 -0.00032872 0.00791225
v -0.02566887 -0.00287709 -0.00075159
v 0.00211228 -0.00063773 -0.00969490
v -0.00271588 -0.00571089 -0.00848823
v -0.00003553 -0.00807992 0.00189623
v -0.02037211 -0.00845482 -0.00576917
f 40 26 41
f 35 36 15
f 26 40 30
f 36 35 37
f 37 30 36
f 36 21 11
f 15 36 11
f 9 2 22
f 9 25 28
f 8 18 38
f 28 25 1
f 32 29 1
f 1 25 32
f 28 1 24
f 12 38 24
f 29 12 24
f 24 1 29
f 26 30 20
f 30 37 20
f 8 10 39
f 39 18 8
f 19 40 41
f 4 11 21
f 32 9 34
f 34 9 22
f 32 25 7
f 7 9 32
f 25 9 7
f 3 9 28
f 8 38 33
f 33 12 29
f 33 38 12
f 14 38 18
f 14 24 38
f 6 39 10
f 18 39 6
f 6 19 41
f 41 23 6
f 2 9 13
f 9 3 13
f 13 4 22
f 22 2 13
f 11 4 13
f 26 20 31
f 5 6 10
f 19 6 5
f 18 6 17
f 17 6 23
f 15 11 27
f 11 13 27
f 16 23 41
f 32 34 5
f 22 4 5
f 36 30 5
f 5 29 32
f 5 21 36
f 40 19 5
f 5 30 40
f 5 10 8
f 8 33 5
f 5 4 21
f 5 34 22
f 5 33 29
f 18 17 16
f 16 31 20
f 16 35 15
f 16 14 18
f 16 37 35
f 28 24 16
f 24 14 16
f 16 20 37
f 16 3 28
f 16 13 3
f 15 27 16
f 16 17 23
f 16 27 13
f 41 26 16
f 26 31 16

