# https://github.com/mikedh/trimesh
v -0.01576627 -0.00737326 0.02366722
v -0.00929452 -0.01045517 -0.01812886
v -0.01691048 -0.01275803 0.01990266
v 0.00610146 -0.00029347 0.00922370
v -0.00954522 -0.00431563 -0.01621578
v -0.01576849 -0.00741051 0.02364990
v 0.00481652 0.00459563 0.00908696
v -0.01727883 -0.00080345 0.02381098
v -0.01595530 -0.00051921 0.02320650
v -0.00686723 0.01278784 -0.00510504
v -0.02153855 0.00455914 0.01930079
v -0.01569401 -0.00735279 0.02363180
v -0.02017138 -0.01447791 0.01427106
v -0.00835182 0.00659247 -0.01030988
v -0.01888868 -0.01486262 0.01608932
v 0.00197793 -0.01319894 -0.00191161
v -0.02463065 0.00454374 0.01456500
v -0.02092371 0.00452201 0.02022743
v -0.00655441 0.01247321 -0.00536058
v -0.01769808 -0.01360585 0.01838070
v 0.00568500 -0.00957770 0.00511374
v -0.00718397 -0.01194601 -0.01545801
v -0.02292014 -0.01306587 0.01059445
v -0.01978917 0.00486153 0.01981462
v -0.02772773 -0.00316635 0.00694328
v 0.00111846 0.01092870 0.00579897
v -0.00672781 0.01118957 0.00436913
v -0.02703364 0.00246199 0.01011040
v -0.00610561 -0.01249258 -0.01401288
v -0.00786168 -0.01197787 -0.01459150
v -0.01698296 -0.00659344 -0.01669518
v 0.00592651 -0.00844756 0.00590592
v -0.02062579 0.00422781 0.02057311
v -0.02238694 -0.01381231 0.01113087
v -0.00082399 0.01220857 0.00330634
v -0.01395928 0.00912972 -0.00831899
v -0.02573527 -0.00912187 0.00776341
v -0.01684183 -0.01265966 0.02004447
v 0.00662571 -0.00269640 0.00912680
v -0.00925396 0.00053141 0.01892709
v -0.01769936 0.00076674 -0.01162922
f 28 41 25
f 15 16 21
f 29 16 15
f 15 13 29
f 29 13 34
f 10 17 27
f 25 41 31
f 31 37 25
f 2 34 31
f 32 38 21
f 30 34 2
f 30 29 34
f 10 27 35
f 35 19 10
f 26 9 7
f 1 9 8
f 2 31 5
f 36 31 41
f 41 28 36
f 28 17 36
f 36 17 10
f 23 31 34
f 37 31 23
f 15 21 20
f 12 32 39
f 12 9 1
f 22 30 2
f 29 30 22
f 11 27 17
f 11 18 27
f 24 35 27
f 27 18 24
f 26 35 24
f 24 18 33
f 24 9 26
f 40 7 9
f 40 12 39
f 9 12 40
f 21 38 3
f 3 20 21
f 6 12 1
f 38 32 6
f 32 12 6
f 4 40 39
f 7 40 4
f 14 5 36
f 36 5 31
f 19 14 36
f 10 19 36
f 33 8 24
f 24 8 9
f 6 28 25
f 6 23 34
f 25 37 6
f 6 13 15
f 33 18 6
f 6 8 33
f 34 13 6
f 6 17 28
f 6 3 38
f 15 20 6
f 1 8 6
f 37 23 6
f 6 11 17
f 18 11 6
f 20 3 6
f 19 35 4
f 4 22 2
f 2 5 4
f 39 32 4
f 4 14 19
f 4 21 16
f 16 29 4
f 4 32 21
f 4 35 26
f 26 7 4
f 4 5 14
f 29 22 4

