# https://github.com/mikedh/trimesh
v -0.01561114 0.00935832 -0.00978837
v -0.01347098 -0.00531912 -0.01758053
v -0.01999639 -0.00279561 -0.00772815
v 0.00887531 0.01023761 0.00051543
v -0.01266702 -0.00312982 -0.01896163
v -0.00234501 -0.00626175 0.00650016
v -0.00761590 -0.00346840 0.00791776
v -0.01220853 -0.00175293 -0.01975785
v -0.02040303 0.00420607 -0.00757203
v -0.01219816 0.00890101 -0.01460326
v -0.01511124 0.00808119 -0.01595796
v 0.00055343 -0.00773461 0.00326293
v -0.00970957 -0.00163887 -0.01830637
v -0.01939395 -0.00363284 -0.00859732
v 0.00493122 -0.00826061 -0.00028287
v 0.00475462 0.00400622 -0.00911851
v -0.01701561 -0.00571222 -0.01001218
v -0.01806264 0.00888617 -0.01147929
v -0.01253045 0.00385003 -0.01963829
v -0.02055084 -0.00003337 -0.00706144
v -0.02001828 0.00613895 -0.00829221
v 0.01262436 -0.00584782 -0.00320388
v -0.01315226 0.00499768 -0.01876014
v -0.01408650 -0.00677441 -0.01318843
v 0.00143246 0.00998626 -0.00486626
v -0.01741678 -0.00592882 -0.01148010
v -0.01804643 -0.00545672 -0.01054471
v 0.01135779 0.00229611 -0.00465698
v -0.01228369 0.00026273 -0.01977727
v -0.02088012 0.00169269 -0.00667122
v 0.00263098 0.00996739 0.00647074
v -0.00954942 0.00421904 -0.01814310
v -0.01582137 -0.00663539 -0.01388294
v -0.00398648 0.00654014 0.00875214
v -0.01481010 -0.00625878 -0.01546116
f 22 4 31
f 28 4 22
f 28 16 4
f 22 31 6
f 1 10 18
f 30 7 34
f 7 6 34
f 34 6 31
f 34 1 18
f 31 1 34
f 20 7 30
f 18 10 11
f 27 6 7
f 21 34 18
f 22 5 8
f 19 32 29
f 4 16 25
f 16 32 25
f 25 32 10
f 10 1 25
f 25 31 4
f 25 1 31
f 7 20 3
f 30 34 9
f 34 21 9
f 22 8 13
f 13 28 22
f 16 28 13
f 13 32 16
f 23 11 10
f 14 27 7
f 7 3 14
f 22 6 12
f 12 15 22
f 2 5 22
f 22 15 2
f 15 35 2
f 15 12 33
f 26 33 12
f 26 12 6
f 24 33 35
f 24 35 15
f 15 33 24
f 27 26 17
f 6 27 17
f 17 26 6
f 13 8 29
f 29 32 13
f 10 32 23
f 32 19 23
f 26 3 20
f 26 19 29
f 26 20 30
f 29 8 26
f 18 11 26
f 27 14 26
f 26 21 18
f 26 8 5
f 30 9 26
f 11 23 26
f 26 9 21
f 26 23 19
f 26 14 3
f 5 2 26
f 26 2 35
f 35 33 26

