# https://github.com/mikedh/trimesh
v -0.00392857 -0.00667065 -0.00717013
v -0.01965972 -0.00856579 -0.00582777
v 0.00130929 -0.00716393 -0.00532865
v -0.02200462 0.00292836 -0.01049768
v -0.02446990 0.00370462 0.00357105
v -0.02297479 -0.00778273 -0.00146415
v -0.00358016 0.00267248 -0.01022692
v -0.00144764 0.00759694 0.00599454
v -0.01697908 -0.00192832 -0.01128053
v 0.00160921 0.00240369 -0.01010720
v -0.02446689 0.00253677 0.00392432
v -0.00375646 0.00951676 0.00038122
v -0.00519000 -0.00387820 0.00687341
v -0.00054869 -0.00596345 0.00507903
v -0.00119116 0.00838912 0.00425379
v 0.00171704 -0.00318207 -0.00896024
v -0.00046148 -0.00635771 0.00469778
v -0.02153019 -0.00172402 -0.01177575
v -0.02011963 -0.00791535 0.00018874
v 0.00160973 0.00239063 -0.01010609
v -0.02366767 0.00687706 -0.00209425
v -0.00166699 0.00313430 0.00868482
v -0.00392483 -0.00244482 -0.00980219
v -0.02428706 -0.00182242 0.00458937
v -0.02215451 -0.00817875 -0.00610157
v -0.02433563 -0.00187266 0.00456182
v -0.02154262 -0.00283939 -0.01134950
v 0.00171753 -0.00317251 -0.00896617
v -0.00481046 0.00680380 0.00625911
v -0.00468749 -0.00683876 0.00400249
v -0.02258183 0.00556732 -0.00798365
v -0.01874182 -0.00609180 -0.00984664
v -0.02195705 0.00270071 -0.01070162
v -0.02311926 -0.00768670 -0.00065575
v -0.02374127 -0.00580692 0.00235941
v 0.00083731 0.00756249 -0.00726255
v -0.00403425 -0.00787179 -0.00218678
v 0.00128039 -0.00720747 -0.00514702
v -0.02434257 -0.00181269 0.00458310
v -0.01542859 0.00640443 -0.00756880
v -0.02285252 0.00590824 -0.00652008
v 0.00051516 -0.00738372 -0.00064758
v -0.00125379 -0.00233037 0.00802013
v -0.00119489 -0.00292139 0.00786570
v -0.02162368 -0.00620369 -0.00981088
v -0.00056757 0.00971946 0.00021045
v -0.00167605 0.00206238 0.00907768
v -0.02027698 -0.00514876 0.00369735
v -0.02386861 -0.00533152 0.00294790
v 0.00033116 -0.00721795 0.00036821
v -0.01479330 0.00815824 -0.00087981
v -0.00323231 0.00749107 -0.00670942
f 29 21 5
f 11 47 5
f 8 29 22
f 5 47 22
f 22 29 5
f 47 11 39
f 46 12 15
f 36 10 7
f 33 36 7
f 33 7 18
f 18 7 10
f 40 12 46
f 35 34 19
f 32 23 28
f 31 40 4
f 4 36 33
f 4 40 36
f 46 36 52
f 52 40 46
f 36 40 52
f 51 40 31
f 12 40 51
f 51 15 12
f 8 15 51
f 51 29 8
f 21 29 51
f 42 37 38
f 19 37 30
f 49 35 30
f 30 35 19
f 2 37 19
f 38 37 2
f 2 3 38
f 1 3 2
f 45 32 2
f 2 32 1
f 24 43 47
f 47 39 24
f 44 43 24
f 24 13 44
f 24 39 26
f 26 13 24
f 26 49 48
f 48 13 26
f 49 30 48
f 48 30 13
f 44 13 14
f 28 23 20
f 20 18 10
f 27 32 45
f 23 32 9
f 18 20 9
f 9 20 23
f 21 51 41
f 41 51 31
f 16 3 1
f 16 32 28
f 1 32 16
f 17 30 50
f 25 2 6
f 45 2 25
f 34 6 2
f 19 34 2
f 14 30 17
f 13 30 14
f 9 27 18
f 32 27 9
f 50 22 47
f 50 14 17
f 47 43 50
f 46 15 50
f 50 36 46
f 50 16 28
f 50 10 36
f 28 20 50
f 8 22 50
f 50 15 8
f 50 43 44
f 38 3 50
f 50 42 38
f 44 14 50
f 50 20 10
f 3 16 50
f 37 42 50
f 50 30 37
f 5 21 25
f 25 49 26
f 25 11 5
f 34 35 25
f 26 39 25
f 25 27 45
f 33 18 25
f 25 39 11
f 21 41 25
f 25 4 33
f 25 6 34
f 25 35 49
f 31 4 25
f 18 27 25
f 25 41 31

