# https://github.com/mikedh/trimesh
v -0.00249397 -0.00571024 -0.00613958
v -0.02076467 -0.00507917 -0.00204173
v -0.00134189 -0.00614745 0.00389338
v -0.00131878 -0.00003107 -0.00819208
v -0.01104928 0.00514852 0.00493825
v -0.02077723 0.00460465 0.00007862
v -0.01818894 -0.00273176 -0.00721736
v -0.02181132 -0.00327669 -0.00542556
v -0.01318152 -0.00748158 -0.00228068
v -0.02326277 0.00071797 0.00404926
v -0.00598779 -0.00101854 -0.00819209
v -0.02548218 0.00118412 -0.00050138
v -0.02264057 -0.00201886 0.00334910
v -0.01289719 0.00305170 -0.00630084
v -0.01340919 -0.00412647 0.00582687
v -0.01767154 -0.00656949 -0.00236154
v -0.02019057 -0.00594204 0.00037963
v -0.00017901 0.00370503 -0.00740053
v -0.02512359 -0.00094160 -0.00131301
v 0.00004121 0.00001979 -0.00822688
v -0.00006881 0.00045081 0.00823100
v -0.00031961 0.00487309 0.00660621
v -0.01934548 0.00097588 0.00649505
v -0.02035410 -0.00463598 -0.00496353
v -0.00032974 0.00505339 0.00652242
v -0.02339531 0.00300684 0.00287368
v -0.00035782 0.00650124 -0.00449909
v -0.01914567 -0.00028390 -0.00738408
v -0.00009414 0.00087318 0.00834149
v -0.02310590 -0.00367055 -0.00192637
v 0.00034118 -0.00614309 0.00365579
v 0.00015688 -0.00331197 0.00722442
v -0.01757109 -0.00475319 -0.00571499
v -0.00800943 0.00596337 -0.00420739
v -0.00574376 0.00261472 -0.00752223
v 0.00035173 -0.00545541 -0.00621632
v -0.01297305 -0.00499261 -0.00670514
v -0.00045716 0.00770174 0.00112781
v -0.01573780 0.00369961 0.00502981
v -0.00092558 0.00361986 -0.00743711
v 0.00042610 -0.00707282 -0.00225416
v -0.01346179 -0.00665620 0.00237854
v -0.02123907 -0.00444159 0.00149558
v -0.01239935 0.00106124 -0.00750648
v -0.01867133 -0.00209945 0.00574521
v -0.01059190 0.00580849 -0.00274617
v -0.00170606 -0.00348967 0.00729114
v -0.00485473 0.00037353 0.00844327
v -0.02028890 0.00394773 -0.00367609
v -0.02362201 0.00364907 -0.00041035
v -0.01327191 -0.00051320 0.00785649
v -0.02327893 -0.00062699 -0.00570392
v -0.01296980 -0.00178879 -0.00790289
v -0.01795408 -0.00434179 0.00393812
v -0.00883278 0.00456791 0.00629571
v -0.01390414 0.00196352 0.00715135
v -0.02398285 0.00154532 -0.00511868
v -0.00669005 0.00709697 0.00117539
v -0.00116812 -0.00716072 -0.00215327
v -0.02305092 0.00322058 -0.00331256
v -0.00014145 0.00307957 -0.00757701
v -0.00027200 0.00516039 -0.00590527
v -0.02072382 0.00316593 0.00397821
f 27 34 38
f 31 59 41
f 3 59 31
f 26 23 63
f 5 26 63
f 38 5 25
f 25 5 55
f 48 55 56
f 55 23 56
f 63 23 39
f 39 23 55
f 39 5 63
f 55 5 39
f 10 26 12
f 23 26 10
f 9 59 3
f 26 5 6
f 6 49 60
f 48 29 22
f 3 15 42
f 17 9 42
f 42 9 3
f 47 15 3
f 3 31 47
f 48 56 51
f 51 56 23
f 51 47 48
f 15 47 51
f 19 10 12
f 23 10 45
f 45 51 23
f 15 51 45
f 61 40 18
f 1 36 41
f 41 59 1
f 59 9 1
f 38 34 58
f 58 5 38
f 58 6 5
f 34 49 46
f 49 6 46
f 46 58 34
f 6 58 46
f 50 6 60
f 26 6 50
f 12 26 50
f 21 47 32
f 32 47 31
f 15 45 54
f 17 42 54
f 54 42 15
f 13 45 10
f 10 19 13
f 13 54 45
f 13 19 30
f 62 18 40
f 17 30 2
f 2 24 17
f 30 24 2
f 16 9 17
f 17 24 16
f 16 24 9
f 30 19 8
f 8 24 30
f 7 24 8
f 9 24 33
f 33 24 7
f 11 20 36
f 11 4 20
f 34 40 14
f 14 49 34
f 61 20 35
f 35 40 61
f 20 4 35
f 4 11 35
f 35 14 40
f 28 14 35
f 43 30 17
f 43 13 30
f 17 54 43
f 54 13 43
f 57 19 12
f 12 50 57
f 57 50 60
f 60 49 57
f 57 14 28
f 49 14 57
f 36 1 37
f 37 11 36
f 37 33 7
f 37 1 9
f 9 33 37
f 44 11 28
f 28 35 44
f 44 35 11
f 52 8 19
f 19 57 52
f 52 57 28
f 52 28 7
f 7 8 52
f 53 37 7
f 11 37 53
f 7 28 53
f 28 11 53
f 22 55 48
f 22 25 55
f 47 21 29
f 47 29 48
f 62 27 38
f 62 31 41
f 41 36 62
f 62 22 29
f 38 25 62
f 29 21 62
f 62 20 61
f 61 18 62
f 36 20 62
f 25 22 62
f 62 32 31
f 21 32 62
f 34 27 62
f 62 40 34

