# https://github.com/mikedh/trimesh
v -0.03021307 0.00992777 -0.00098647
v 0.00610309 -0.01063893 0.00368997
v -0.02655729 -0.00589289 -0.00875177
v 0.00533268 -0.00945130 -0.00861838
v -0.02521571 0.00132324 -0.01448105
v -0.02567382 -0.00387856 -0.01191926
v 0.00231235 0.00635810 -0.00607880
v -0.00882858 0.01304124 -0.00309726
v -0.02667936 -0.00610692 -0.00832831
v -0.03092124 0.00670158 0.00190889
v -0.03009435 0.01045075 -0.00146790
v 0.00264070 0.01386172 0.01424044
v -0.02483320 -0.00658419 -0.00131278
v -0.00878193 -0.00065978 0.01197267
v -0.00671078 0.00729108 -0.00838341
v 0.00581019 0.01258879 0.00102434
v -0.02058079 0.00798574 -0.01192387
v -0.02777951 -0.00340626 0.00267788
v -0.02501468 0.01170092 -0.00007723
v -0.02624856 0.00769200 -0.01270710
v -0.00707927 -0.00605156 0.01099457
v -0.02323286 -0.00707265 -0.00624831
v -0.03007315 -0.00306391 0.00145536
v -0.02910028 0.00189780 0.00360799
v -0.02751307 0.01125836 -0.00675241
v -0.02835267 0.01116194 -0.00699144
v -0.02618679 0.00732379 -0.01281598
v -0.03002928 0.01048474 -0.00167589
v -0.03085868 0.00173829 0.00281371
v -0.01016106 0.00590667 0.01224875
v -0.02834980 -0.00601291 -0.00320231
f 2 12 21
f 30 12 10
f 16 4 7
f 16 12 2
f 2 4 16
f 17 4 5
f 14 21 12
f 12 30 14
f 2 21 13
f 13 23 31
f 22 4 2
f 2 13 22
f 22 13 31
f 10 12 1
f 12 11 1
f 19 11 12
f 7 4 15
f 4 17 15
f 15 16 7
f 12 16 8
f 8 20 26
f 17 20 8
f 16 15 8
f 8 15 17
f 8 19 12
f 29 30 10
f 18 13 21
f 23 13 18
f 18 29 23
f 21 14 18
f 14 29 18
f 5 4 6
f 28 19 26
f 11 19 28
f 27 17 5
f 27 20 17
f 26 19 25
f 25 8 26
f 19 8 25
f 24 14 30
f 30 29 24
f 24 29 14
f 9 22 31
f 4 22 9
f 3 6 4
f 4 9 3
f 10 1 3
f 3 28 26
f 3 29 10
f 5 6 3
f 31 23 3
f 3 1 11
f 26 20 3
f 23 29 3
f 3 27 5
f 11 28 3
f 20 27 3
f 3 9 31

